<svg xmlns="http://www.w3.org/2000/svg" height="24" viewBox="0 -960 960 960" width="24"><path fill="#000000" d="M592.641-200q-117.39 0-198.862-81.472-81.472-81.471-81.472-198.861 0-116.513 81.472-198.09T592.641-760q116.513 0 198.09 81.577t81.577 198.09q0 117.39-81.577 198.861Q709.154-200 592.641-200Zm-.333-40q100 0 170-70t70-170q0-100-70-170t-170-70q-100 0-170 70t-70 170q0 100 70 170t170 70ZM691-351.769l28.539-28.539-107.231-107.231v-140.153h-40v156.231L691-351.769ZM127.692-620v-40h144.615v40H127.692Zm-40 160v-40h184.615v40H87.692Zm40 160v-40h144.615v40H127.692Zm464.616-180Z"/></svg>