<svg xmlns="http://www.w3.org/2000/svg" height="24" viewBox="0 -960 960 960" width="24"><path fill="#000000" d="M480-120q-75.077 0-140.769-28.038-65.693-28.039-114.423-76.77-48.731-48.73-76.77-114.423Q120-404.923 120-480q0-75.308 28.038-140.885 28.039-65.577 76.77-114.308 48.73-48.73 114.423-76.769Q404.923-840 480-840q32 0 61.5 5.269t58.5 14.269V-760q0 33-23.5 56.5T520-680h-80v80q0 17-11.5 28.5T400-560h-80v80h240q17 0 28.5 11.5T600-440v120h40q27 0 47.5 16t28.5 40q39-42.462 61.5-97.731Q800-417 800-480q0-11-.231-20t-2.231-20H838q2 11 2 20v20q0 75.077-28.038 140.769-28.039 65.693-76.769 114.423-48.731 48.731-114.308 76.77Q555.308-120 480-120Zm-40-42v-78q-33 0-56.5-23.5T360-320v-40L168-552q-3 18-5.5 36t-2.5 36q0 122.462 80.5 212.731Q321-177 440-162Zm272.308-438q-13.923 0-23.116-9.192Q680-618.385 680-632.308v-116.923q0-13.923 9.192-23.115 9.193-9.193 23.116-9.193H720v-40q0-29.923 20.423-50.346t50.346-20.423q29.923 0 50.346 20.423 20.424 20.423 20.424 50.346v40h7.692q13.923 0 23.115 9.193 9.193 9.192 9.193 23.115v116.923q0 13.923-9.193 23.116Q883.154-600 869.231-600H712.308Zm38.461-181.539h80v-40q0-17-11.5-28.5t-28.5-11.5q-17 0-28.5 11.5t-11.5 28.5v40Z"/></svg>