<svg xmlns="http://www.w3.org/2000/svg" xmlns:xlink="http://www.w3.org/1999/xlink" width="500" zoomAndPan="magnify" viewBox="0 0 375 374.999991" height="500" preserveAspectRatio="xMidYMid meet" version="1.0"><defs><g/><clipPath id="9c98249620"><path d="M 136 125.550781 L 154 125.550781 L 154 129 L 136 129 Z M 136 125.550781 " clip-rule="nonzero"/></clipPath><clipPath id="c279a109ab"><path d="M 117 125.550781 L 135 125.550781 L 135 128 L 117 128 Z M 117 125.550781 " clip-rule="nonzero"/></clipPath><clipPath id="974a8a6d57"><path d="M 54.097656 184 L 57 184 L 57 202 L 54.097656 202 Z M 54.097656 184 " clip-rule="nonzero"/></clipPath><clipPath id="3539c93c16"><path d="M 54.097656 196 L 56 196 L 56 213 L 54.097656 213 Z M 54.097656 196 " clip-rule="nonzero"/></clipPath><clipPath id="4b1f10e386"><path d="M 54.097656 208 L 57 208 L 57 223 L 54.097656 223 Z M 54.097656 208 " clip-rule="nonzero"/></clipPath><clipPath id="aae409d682"><path d="M 68 240 L 80 240 L 80 249.300781 L 68 249.300781 Z M 68 240 " clip-rule="nonzero"/></clipPath></defs><path fill="#ffffff" d="M 99.074219 133.714844 C 99.207031 133.28125 99.40625 133.007812 99.664062 132.886719 L 103.148438 131.367188 C 106.417969 130.1875 110.824219 128.722656 114.175781 127.78125 L 115.820312 127.402344 C 115.542969 127.507812 115.332031 127.785156 115.195312 128.234375 C 112.683594 129.105469 109.34375 130.300781 106.898438 131.335938 C 104.535156 131.988281 101.382812 132.890625 99.074219 133.714844 " fill-opacity="1" fill-rule="nonzero"/><path fill="#ffffff" d="M 82.757812 143.878906 C 82.859375 143.558594 82.992188 143.324219 83.167969 143.183594 L 83.226562 143.136719 C 89.8125 138.21875 89.9375 138.125 93.640625 136 L 97.292969 134.035156 C 97.046875 134.160156 96.855469 134.433594 96.726562 134.851562 C 94.460938 136.296875 91.453125 138.246094 89.285156 139.832031 C 87.296875 140.996094 84.652344 142.570312 82.757812 143.878906 " fill-opacity="1" fill-rule="nonzero"/><path fill="#ffffff" d="M 204.136719 171.070312 L 204.207031 171.117188 L 205.730469 174.792969 L 204.136719 171.070312 " fill-opacity="1" fill-rule="nonzero"/><path fill="#ffffff" d="M 199.175781 162.425781 C 199.203125 162.34375 199.242188 162.296875 199.289062 162.277344 C 200.585938 164.464844 202.296875 167.402344 203.460938 169.664062 L 205.730469 174.792969 L 203.371094 169.785156 C 202.148438 167.558594 200.503906 164.59375 199.175781 162.425781 " fill-opacity="1" fill-rule="nonzero"/><path fill="#ffffff" d="M 187.007812 147.898438 C 187.066406 147.714844 187.152344 147.597656 187.269531 147.554688 C 189.03125 149.308594 191.363281 151.664062 193.023438 153.515625 C 194.515625 155.476562 196.492188 158.101562 197.886719 160.132812 C 197.828125 160.15625 197.78125 160.214844 197.753906 160.308594 C 196.257812 158.398438 194.242188 155.859375 192.628906 154.042969 C 190.972656 152.175781 188.75 149.691406 187.007812 147.898438 " fill-opacity="1" fill-rule="nonzero"/><path fill="#ffffff" d="M 172.011719 136.847656 C 172.097656 136.570312 172.230469 136.398438 172.402344 136.332031 C 174.527344 137.609375 177.351562 139.332031 179.398438 140.730469 C 181.238281 142.234375 183.679688 144.257812 185.441406 145.855469 C 185.320312 145.902344 185.226562 146.027344 185.164062 146.226562 C 183.265625 144.800781 180.71875 142.917969 178.730469 141.625 C 176.738281 140.160156 174.074219 138.21875 172.011719 136.847656 " fill-opacity="1" fill-rule="nonzero"/><path fill="#ffffff" d="M 154.953125 129.59375 C 155.0625 129.238281 155.226562 129.019531 155.445312 128.933594 C 157.832031 129.691406 161.007812 130.726562 163.34375 131.625 C 165.4375 132.632812 168.222656 133.996094 170.253906 135.121094 C 170.074219 135.191406 169.941406 135.371094 169.851562 135.660156 C 167.648438 134.761719 164.703125 133.582031 162.445312 132.832031 C 160.214844 131.820312 157.230469 130.488281 154.953125 129.59375 " fill-opacity="1" fill-rule="nonzero"/><g clip-path="url(#9c98249620)"><path fill="#ffffff" d="M 136.59375 126.441406 C 136.722656 126.03125 136.914062 125.777344 137.167969 125.675781 C 139.640625 125.875 142.941406 126.148438 145.394531 126.492188 L 145.734375 126.546875 C 147.949219 127.011719 150.902344 127.652344 153.082031 128.257812 C 152.855469 128.34375 152.6875 128.566406 152.574219 128.929688 C 150.167969 128.589844 146.957031 128.160156 144.53125 127.980469 C 142.160156 127.472656 138.992188 126.8125 136.59375 126.441406 " fill-opacity="1" fill-rule="nonzero"/></g><g clip-path="url(#c279a109ab)"><path fill="#ffffff" d="M 117.699219 127.71875 C 117.839844 127.269531 118.046875 126.996094 118.324219 126.886719 L 121.578125 126.328125 C 123.472656 126.125 125.996094 125.785156 127.894531 125.660156 L 130.226562 125.546875 L 134.683594 125.574219 C 134.425781 125.675781 134.230469 125.933594 134.101562 126.351562 C 131.59375 126.597656 128.246094 126.960938 125.761719 127.378906 C 123.34375 127.425781 120.113281 127.507812 117.699219 127.71875 " fill-opacity="1" fill-rule="nonzero"/></g><path fill="#ffffff" d="M 69.804688 157.265625 C 69.867188 157.070312 69.941406 156.910156 70.03125 156.789062 C 71.292969 155.25 72.921875 153.160156 74.246094 151.679688 C 76.289062 149.570312 79.050781 146.789062 81.222656 144.816406 C 81.0625 144.957031 80.933594 145.179688 80.839844 145.488281 C 79 147.359375 76.566406 149.875 74.847656 151.855469 C 73.292969 153.441406 71.238281 155.574219 69.804688 157.265625 " fill-opacity="1" fill-rule="nonzero"/><path fill="#ffffff" d="M 204.0625 171.316406 C 204.058594 171.261719 204.054688 171.214844 204.054688 171.179688 L 205.730469 174.792969 L 204.0625 171.316406 " fill-opacity="1" fill-rule="nonzero"/><path fill="#ffffff" d="M 193.625 156.105469 C 193.589844 155.789062 193.578125 155.527344 193.585938 155.3125 C 195.128906 157.171875 197.164062 159.671875 198.585938 161.625 C 199.910156 163.785156 201.65625 166.675781 202.878906 168.894531 C 202.878906 168.957031 202.882812 169.035156 202.890625 169.125 C 201.660156 167.15625 200 164.539062 198.636719 162.660156 C 197.164062 160.671875 194.582031 158.390625 193.625 156.105469 " fill-opacity="1" fill-rule="nonzero"/><path fill="#ffffff" d="M 179.972656 144.113281 C 179.910156 143.5625 179.886719 143.101562 179.902344 142.734375 C 181.828125 144.078125 184.386719 145.894531 186.222656 147.367188 C 187.964844 149.164062 190.277344 151.574219 191.9375 153.449219 C 191.929688 153.683594 191.941406 153.972656 191.980469 154.320312 C 190.328125 152.871094 188.101562 150.957031 186.339844 149.636719 C 184.453125 147.953125 181.175781 146.335938 179.972656 144.113281 " fill-opacity="1" fill-rule="nonzero"/><path fill="#ffffff" d="M 163.859375 135.625 C 163.777344 134.871094 163.746094 134.246094 163.765625 133.742188 C 165.980469 134.542969 168.921875 135.640625 171.078125 136.589844 C 173.140625 137.976562 175.882812 139.847656 177.882812 141.324219 C 177.867188 141.714844 177.890625 142.195312 177.957031 142.777344 C 175.96875 141.875 173.304688 140.691406 171.25 139.949219 C 169.050781 138.621094 166.109375 136.863281 163.859375 135.625 " fill-opacity="1" fill-rule="nonzero"/><path fill="#ffffff" d="M 146.0625 130.933594 C 145.960938 130.015625 145.921875 129.257812 145.949219 128.644531 C 148.34375 128.878906 151.539062 129.214844 153.910156 129.609375 C 156.199219 130.539062 159.242188 131.792969 161.480469 132.835938 C 161.460938 133.355469 161.492188 134 161.578125 134.777344 C 159.355469 134.445312 156.375 134.027344 154.132812 133.863281 C 151.726562 132.949219 148.507812 131.742188 146.0625 130.933594 " fill-opacity="1" fill-rule="nonzero"/><path fill="#ffffff" d="M 127.34375 130.3125 C 127.226562 129.289062 127.183594 128.4375 127.214844 127.75 C 129.691406 127.390625 133 126.929688 135.492188 126.738281 C 137.902344 127.152344 141.117188 127.726562 143.5 128.277344 C 143.472656 128.902344 143.511719 129.675781 143.617188 130.609375 C 141.25 130.863281 138.089844 131.234375 135.746094 131.660156 C 133.234375 131.210938 129.878906 130.628906 127.34375 130.3125 " fill-opacity="1" fill-rule="nonzero"/><path fill="#ffffff" d="M 108.464844 134.058594 C 108.34375 132.980469 108.296875 132.082031 108.328125 131.363281 C 110.78125 130.386719 114.070312 129.101562 116.585938 128.292969 C 119.015625 128.136719 122.261719 127.957031 124.699219 127.964844 C 124.667969 128.65625 124.714844 129.519531 124.832031 130.554688 C 122.417969 131.414062 119.207031 132.589844 116.859375 133.609375 C 114.339844 133.6875 110.972656 133.816406 108.464844 134.058594 " fill-opacity="1" fill-rule="nonzero"/><path fill="#ffffff" d="M 90.660156 142.199219 C 90.539062 141.132812 90.492188 140.246094 90.523438 139.53125 C 92.738281 137.988281 95.707031 135.945312 98.015625 134.546875 C 100.347656 133.785156 103.46875 132.789062 105.851562 132.199219 C 105.820312 132.917969 105.863281 133.820312 105.988281 134.898438 C 103.644531 136.363281 100.539062 138.339844 98.296875 139.949219 C 95.988281 140.566406 92.917969 141.417969 90.660156 142.199219 " fill-opacity="1" fill-rule="nonzero"/><path fill="#ffffff" d="M 75.949219 153.75 C 75.835938 152.761719 75.792969 151.933594 75.824219 151.273438 C 77.597656 149.320312 79.988281 146.730469 81.878906 144.890625 C 83.796875 143.640625 86.375 142 88.382812 140.902344 C 88.351562 141.609375 88.394531 142.492188 88.515625 143.554688 C 86.566406 145.464844 83.984375 148.03125 82.144531 150.050781 C 80.253906 151.109375 77.746094 152.542969 75.949219 153.75 " fill-opacity="1" fill-rule="nonzero"/><path fill="#ffffff" d="M 64.757812 167.957031 C 64.660156 167.09375 64.625 166.375 64.648438 165.800781 C 65.949219 163.550781 67.703125 160.566406 69.125 158.394531 C 70.585938 156.753906 72.550781 154.582031 74.128906 153.058594 C 74.101562 153.710938 74.144531 154.523438 74.253906 155.5 C 72.746094 157.730469 70.753906 160.71875 69.363281 163.019531 C 67.9375 164.460938 66.054688 166.402344 64.757812 167.957031 " fill-opacity="1" fill-rule="nonzero"/><path fill="#ffffff" d="M 57.398438 184.082031 C 57.324219 183.394531 57.292969 182.824219 57.3125 182.367188 C 58.097656 179.933594 59.160156 176.691406 60.074219 174.304688 C 61.039062 172.359375 62.347656 169.769531 63.449219 167.898438 C 63.421875 168.457031 63.457031 169.160156 63.554688 170 C 62.527344 172.429688 61.179688 175.675781 60.273438 178.148438 C 59.359375 179.902344 58.164062 182.257812 57.398438 184.082031 " fill-opacity="1" fill-rule="nonzero"/><g clip-path="url(#974a8a6d57)"><path fill="#ffffff" d="M 54.1875 201.410156 C 54.136719 200.9375 54.117188 200.542969 54.128906 200.230469 L 54.179688 199.40625 L 54.511719 195.660156 L 55.191406 190.917969 C 55.601562 189.039062 56.132812 186.53125 56.644531 184.679688 C 56.625 185.121094 56.65625 185.667969 56.726562 186.328125 C 56.222656 188.839844 55.566406 192.191406 55.179688 194.71875 C 54.832031 196.71875 54.390625 199.390625 54.1875 201.410156 " fill-opacity="1" fill-rule="nonzero"/></g><path fill="#ffffff" d="M 199.40625 164.421875 C 199.394531 164.378906 199.386719 164.335938 199.375 164.296875 C 199.320312 164.042969 199.273438 163.8125 199.234375 163.605469 C 200.527344 165.515625 202.226562 168.074219 203.386719 170.066406 L 205.730469 174.792969 L 203.519531 170.714844 C 202.316406 168.808594 200.324219 166.484375 199.40625 164.421875 " fill-opacity="1" fill-rule="nonzero"/><path fill="#ffffff" d="M 187.53125 152.480469 C 187.507812 152.382812 187.488281 152.285156 187.464844 152.191406 C 187.335938 151.609375 187.226562 151.082031 187.144531 150.609375 C 188.847656 151.960938 191.097656 153.792969 192.6875 155.273438 C 194.257812 157.179688 196.335938 159.730469 197.824219 161.703125 C 197.863281 161.945312 197.917969 162.214844 197.988281 162.515625 C 198 162.5625 198.011719 162.613281 198.019531 162.664062 C 196.640625 161.253906 194.777344 159.386719 193.277344 158.105469 C 191.574219 156.398438 188.738281 154.570312 187.53125 152.480469 " fill-opacity="1" fill-rule="nonzero"/><path fill="#ffffff" d="M 172.796875 143.707031 C 172.761719 143.5625 172.726562 143.417969 172.699219 143.277344 C 172.5 142.402344 172.339844 141.613281 172.214844 140.90625 C 174.222656 141.691406 176.894531 142.761719 178.832031 143.703125 C 180.796875 145.304688 183.40625 147.453125 185.308594 149.125 C 185.398438 149.632812 185.511719 150.195312 185.652344 150.820312 C 185.675781 150.921875 185.699219 151.023438 185.722656 151.125 C 183.980469 150.28125 181.644531 149.179688 179.828125 148.503906 C 177.734375 147.042969 174.257812 145.800781 172.796875 143.707031 " fill-opacity="1" fill-rule="nonzero"/><path fill="#ffffff" d="M 155.949219 138.332031 C 155.90625 138.148438 155.863281 137.964844 155.824219 137.789062 C 155.570312 136.671875 155.367188 135.667969 155.210938 134.765625 C 157.425781 134.96875 160.386719 135.265625 162.582031 135.640625 C 164.84375 136.882812 167.847656 138.554688 170.0625 139.882812 C 170.191406 140.617188 170.355469 141.4375 170.5625 142.34375 C 170.59375 142.492188 170.628906 142.640625 170.664062 142.792969 C 168.648438 142.527344 165.957031 142.203125 163.925781 142.117188 C 161.542969 140.953125 158.363281 139.421875 155.949219 138.332031 " fill-opacity="1" fill-rule="nonzero"/><path fill="#ffffff" d="M 137.753906 136.597656 C 137.703125 136.382812 137.652344 136.171875 137.605469 135.960938 C 137.3125 134.667969 137.078125 133.5 136.894531 132.453125 C 139.226562 132.066406 142.34375 131.574219 144.695312 131.363281 C 147.152344 132.1875 150.421875 133.304688 152.839844 134.234375 C 153 135.15625 153.210938 136.1875 153.46875 137.328125 C 153.507812 137.511719 153.550781 137.699219 153.597656 137.890625 C 151.402344 138.210938 148.476562 138.667969 146.3125 139.15625 C 143.753906 138.355469 140.339844 137.304688 137.753906 136.597656 " fill-opacity="1" fill-rule="nonzero"/><path fill="#ffffff" d="M 118.957031 138.722656 C 118.902344 138.492188 118.851562 138.261719 118.796875 138.035156 C 118.480469 136.632812 118.226562 135.363281 118.023438 134.230469 C 120.378906 133.253906 123.53125 131.96875 125.945312 131.148438 C 128.488281 131.492188 131.882812 131.972656 134.40625 132.449219 C 134.589844 133.507812 134.832031 134.691406 135.128906 136.003906 C 135.175781 136.21875 135.226562 136.433594 135.277344 136.652344 C 132.996094 137.554688 129.964844 138.792969 127.75 139.839844 C 125.117188 139.464844 121.601562 138.980469 118.957031 138.722656 " fill-opacity="1" fill-rule="nonzero"/><path fill="#ffffff" d="M 100.355469 144.933594 C 100.300781 144.695312 100.246094 144.460938 100.191406 144.230469 C 99.871094 142.800781 99.605469 141.511719 99.40625 140.355469 C 101.679688 138.785156 104.726562 136.710938 107.089844 135.28125 C 109.613281 135.078125 112.988281 134.832031 115.519531 134.789062 C 115.71875 135.929688 115.976562 137.203125 116.296875 138.617188 C 116.347656 138.84375 116.402344 139.074219 116.457031 139.308594 C 114.183594 140.789062 111.167969 142.78125 108.976562 144.378906 C 106.386719 144.496094 102.933594 144.675781 100.355469 144.933594 " fill-opacity="1" fill-rule="nonzero"/><path fill="#ffffff" d="M 83.984375 154.632812 C 83.933594 154.40625 83.878906 154.179688 83.828125 153.960938 C 83.519531 152.589844 83.269531 151.351562 83.074219 150.242188 C 84.953125 148.25 87.484375 145.601562 89.476562 143.71875 C 91.730469 142.988281 94.753906 142.042969 97.058594 141.476562 C 97.257812 142.628906 97.519531 143.917969 97.84375 145.34375 C 97.894531 145.574219 97.949219 145.808594 98.003906 146.046875 C 95.96875 148 93.269531 150.621094 91.332031 152.671875 C 89.117188 153.210938 86.160156 153.949219 83.984375 154.632812 " fill-opacity="1" fill-rule="nonzero"/><path fill="#ffffff" d="M 70.910156 166.945312 C 70.863281 166.742188 70.816406 166.539062 70.769531 166.339844 C 70.492188 165.105469 70.265625 163.992188 70.089844 162.996094 C 71.53125 160.707031 73.46875 157.664062 75.019531 155.453125 C 76.828125 154.300781 79.257812 152.789062 81.152344 151.785156 C 81.34375 152.882812 81.59375 154.105469 81.898438 155.464844 C 81.949219 155.683594 82 155.90625 82.054688 156.128906 C 80.425781 158.390625 78.269531 161.414062 76.742188 163.742188 C 74.964844 164.652344 72.605469 165.890625 70.910156 166.945312 " fill-opacity="1" fill-rule="nonzero"/><path fill="#ffffff" d="M 61.453125 181.199219 C 61.414062 181.027344 61.371094 180.859375 61.335938 180.691406 C 61.101562 179.664062 60.914062 178.734375 60.769531 177.902344 C 61.730469 175.4375 63.03125 172.15625 64.109375 169.742188 C 65.421875 168.238281 67.195312 166.25 68.636719 164.867188 C 68.808594 165.84375 69.027344 166.9375 69.300781 168.144531 C 69.347656 168.339844 69.390625 168.539062 69.4375 168.742188 C 68.253906 171.175781 66.6875 174.429688 65.597656 176.90625 C 64.308594 178.152344 62.609375 179.835938 61.453125 181.199219 " fill-opacity="1" fill-rule="nonzero"/><path fill="#ffffff" d="M 55.9375 196.722656 C 55.90625 196.59375 55.878906 196.46875 55.847656 196.34375 C 55.675781 195.574219 55.535156 194.878906 55.425781 194.257812 C 55.871094 191.730469 56.488281 188.367188 57.050781 185.867188 C 57.832031 184.082031 58.894531 181.714844 59.824219 180.003906 C 59.964844 180.8125 60.148438 181.710938 60.375 182.710938 C 60.410156 182.871094 60.449219 183.035156 60.484375 183.199219 C 59.773438 185.6875 58.839844 189.007812 58.226562 191.523438 C 57.484375 193.054688 56.519531 195.121094 55.9375 196.722656 " fill-opacity="1" fill-rule="nonzero"/><g clip-path="url(#3539c93c16)"><path fill="#ffffff" d="M 54.683594 212.839844 C 54.667969 212.761719 54.648438 212.6875 54.632812 212.613281 C 54.527344 212.148438 54.441406 211.730469 54.375 211.359375 C 54.265625 208.882812 54.144531 205.585938 54.160156 203.109375 C 54.371094 201.121094 54.671875 198.464844 55.03125 196.5 C 55.136719 197.089844 55.269531 197.75 55.433594 198.480469 C 55.460938 198.597656 55.488281 198.71875 55.519531 198.839844 C 55.308594 201.265625 55.050781 204.5 54.953125 206.933594 C 54.820312 208.699219 54.667969 211.066406 54.683594 212.839844 " fill-opacity="1" fill-rule="nonzero"/></g><path fill="#ffffff" d="M 204.269531 172.207031 C 204.238281 172.097656 204.210938 171.996094 204.183594 171.898438 L 205.730469 174.792969 L 204.269531 172.207031 " fill-opacity="1" fill-rule="nonzero"/><path fill="#ffffff" d="M 194.808594 161.175781 C 194.625 160.550781 194.460938 159.960938 194.3125 159.402344 C 195.734375 160.722656 197.609375 162.507812 198.90625 163.945312 C 200.191406 165.765625 201.890625 168.199219 203.089844 170.078125 C 203.132812 170.238281 203.179688 170.410156 203.234375 170.589844 C 202.175781 169.25 200.742188 167.472656 199.550781 166.25 C 198.148438 164.707031 195.863281 162.972656 194.808594 161.175781 " fill-opacity="1" fill-rule="nonzero"/><path fill="#ffffff" d="M 182.035156 152.953125 C 181.714844 151.863281 181.425781 150.832031 181.167969 149.863281 C 182.921875 150.585938 185.253906 151.582031 186.929688 152.46875 C 188.691406 154.097656 191.035156 156.277344 192.742188 157.964844 C 192.902344 158.574219 193.085938 159.230469 193.289062 159.917969 C 191.835938 159.144531 189.878906 158.136719 188.347656 157.539062 C 186.464844 156.144531 183.398438 154.855469 182.035156 152.953125 " fill-opacity="1" fill-rule="nonzero"/><path fill="#ffffff" d="M 166.679688 147.695312 C 166.242188 146.210938 165.847656 144.800781 165.5 143.480469 C 167.492188 143.617188 170.152344 143.824219 172.121094 144.140625 C 174.265625 145.527344 177.117188 147.382812 179.21875 148.828125 C 179.488281 149.847656 179.792969 150.9375 180.128906 152.078125 C 178.359375 151.882812 175.996094 151.652344 174.21875 151.632812 C 171.964844 150.4375 168.957031 148.847656 166.679688 147.695312 " fill-opacity="1" fill-rule="nonzero"/><path fill="#ffffff" d="M 149.480469 145.566406 C 148.949219 143.765625 148.472656 142.058594 148.050781 140.453125 C 150.195312 140.011719 153.0625 139.449219 155.238281 139.175781 C 157.65625 140.261719 160.878906 141.722656 163.269531 142.878906 C 163.628906 144.246094 164.035156 145.699219 164.488281 147.230469 C 162.496094 147.609375 159.84375 148.140625 157.890625 148.675781 C 155.375 147.722656 152.015625 146.460938 149.480469 145.566406 " fill-opacity="1" fill-rule="nonzero"/><path fill="#ffffff" d="M 112.492188 151.316406 C 111.867188 149.191406 111.300781 147.175781 110.804688 145.285156 C 113.007812 143.734375 115.960938 141.675781 118.242188 140.242188 C 120.898438 140.53125 124.4375 140.9375 127.078125 141.335938 C 127.558594 143.152344 128.097656 145.089844 128.699219 147.128906 C 126.53125 148.585938 123.652344 150.550781 121.558594 152.109375 C 118.839844 151.835938 115.214844 151.484375 112.492188 151.316406 " fill-opacity="1" fill-rule="nonzero"/><path fill="#ffffff" d="M 94.644531 159.269531 C 94.023438 157.167969 93.464844 155.171875 92.972656 153.304688 C 94.957031 151.285156 97.617188 148.609375 99.699219 146.691406 C 102.285156 146.480469 105.738281 146.226562 108.332031 146.148438 C 108.832031 148.042969 109.398438 150.0625 110.023438 152.191406 C 107.90625 154.125 105.097656 156.722656 103.070312 158.746094 C 100.539062 158.863281 97.164062 159.039062 94.644531 159.269531 " fill-opacity="1" fill-rule="nonzero"/><path fill="#ffffff" d="M 79.652344 169.628906 C 79.078125 167.675781 78.558594 165.820312 78.101562 164.082031 C 79.683594 161.78125 81.808594 158.722656 83.484375 156.492188 C 85.671875 155.871094 88.59375 155.070312 90.816406 154.589844 C 91.304688 156.449219 91.859375 158.429688 92.476562 160.519531 C 90.714844 162.742188 88.382812 165.71875 86.703125 168.007812 C 84.582031 168.449219 81.746094 169.058594 79.652344 169.628906 " fill-opacity="1" fill-rule="nonzero"/><path fill="#ffffff" d="M 67.980469 181.765625 C 67.480469 180.066406 67.027344 178.453125 66.628906 176.941406 C 67.777344 174.480469 69.328125 171.210938 70.570312 168.796875 C 72.28125 167.8125 74.585938 166.523438 76.375 165.683594 C 76.828125 167.398438 77.339844 169.226562 77.90625 171.152344 C 76.542969 173.527344 74.738281 176.707031 73.457031 179.125 C 71.789062 179.867188 69.574219 180.882812 67.980469 181.765625 " fill-opacity="1" fill-rule="nonzero"/><path fill="#ffffff" d="M 59.964844 195.074219 C 59.566406 193.722656 59.207031 192.441406 58.890625 191.234375 C 59.570312 188.738281 60.496094 185.414062 61.273438 182.945312 C 62.460938 181.648438 64.070312 179.9375 65.378906 178.765625 C 65.769531 180.242188 66.210938 181.820312 66.699219 183.476562 C 65.765625 185.882812 64.527344 189.09375 63.667969 191.523438 C 62.515625 192.546875 60.992188 193.929688 59.964844 195.074219 " fill-opacity="1" fill-rule="nonzero"/><path fill="#ffffff" d="M 55.953125 208.964844 C 55.679688 208.035156 55.429688 207.152344 55.214844 206.324219 C 55.390625 203.90625 55.640625 200.683594 55.921875 198.277344 C 56.539062 196.730469 57.386719 194.675781 58.160156 193.207031 C 58.464844 194.363281 58.8125 195.597656 59.195312 196.898438 C 58.71875 199.214844 58.09375 202.304688 57.699219 204.632812 C 57.117188 205.90625 56.367188 207.628906 55.953125 208.964844 " fill-opacity="1" fill-rule="nonzero"/><g clip-path="url(#4b1f10e386)"><path fill="#ffffff" d="M 56.285156 222.835938 C 56.152344 222.390625 56.035156 221.96875 55.929688 221.570312 C 55.558594 219.34375 55.089844 216.367188 54.839844 214.125 C 54.851562 212.390625 54.882812 210.078125 55.050781 208.351562 C 55.253906 209.125 55.484375 209.949219 55.738281 210.820312 C 55.75 212.9375 55.773438 215.765625 55.890625 217.878906 C 55.953125 219.371094 56.070312 221.359375 56.285156 222.835938 " fill-opacity="1" fill-rule="nonzero"/></g><path fill="#ffffff" d="M 56.871094 225.480469 L 56.53125 224.214844 L 56.371094 223.570312 C 56.460938 223.90625 56.5625 224.265625 56.671875 224.644531 L 57.292969 226.941406 C 57.164062 226.503906 56.992188 225.921875 56.871094 225.480469 " fill-opacity="1" fill-rule="nonzero"/><path fill="#ffffff" d="M 200.550781 168.328125 C 200.402344 167.890625 200.269531 167.46875 200.140625 167.0625 C 201.253906 168.308594 202.71875 169.996094 203.695312 171.347656 L 205.730469 174.792969 L 204.023438 172.355469 C 203.003906 171.128906 201.359375 169.703125 200.550781 168.328125 " fill-opacity="1" fill-rule="nonzero"/><path fill="#ffffff" d="M 190.160156 161.445312 C 189.824219 160.445312 189.511719 159.472656 189.222656 158.542969 C 190.695312 159.179688 192.65625 160.0625 194.046875 160.867188 C 195.519531 162.320312 197.472656 164.269531 198.890625 165.777344 C 199.039062 166.253906 199.199219 166.753906 199.371094 167.269531 C 198.234375 166.613281 196.695312 165.761719 195.472656 165.285156 C 193.886719 164.117188 191.335938 163.023438 190.160156 161.445312 " fill-opacity="1" fill-rule="nonzero"/><path fill="#ffffff" d="M 176.730469 157.132812 C 176.230469 155.628906 175.761719 154.179688 175.328125 152.789062 C 177.070312 152.839844 179.402344 152.941406 181.132812 153.175781 C 183.066406 154.492188 185.636719 156.253906 187.535156 157.617188 C 187.84375 158.613281 188.179688 159.652344 188.535156 160.722656 C 187.042969 160.640625 185.039062 160.5625 183.546875 160.65625 C 181.507812 159.589844 178.234375 158.875 176.730469 157.132812 " fill-opacity="1" fill-rule="nonzero"/><path fill="#ffffff" d="M 160.964844 155.453125 C 160.328125 153.539062 159.730469 151.6875 159.179688 149.914062 C 161.117188 149.410156 163.710938 148.761719 165.6875 148.421875 C 167.976562 149.550781 171.03125 151.0625 173.296875 152.238281 C 173.75 153.683594 174.238281 155.195312 174.753906 156.753906 C 172.996094 157.230469 170.652344 157.894531 168.941406 158.515625 C 166.550781 157.585938 163.363281 156.351562 160.964844 155.453125 " fill-opacity="1" fill-rule="nonzero"/><path fill="#ffffff" d="M 143.578125 156.476562 C 142.839844 154.253906 142.144531 152.105469 141.503906 150.042969 C 143.558594 149.011719 146.316406 147.652344 148.433594 146.75 C 150.980469 147.632812 154.375 148.816406 156.90625 149.753906 C 157.472656 151.574219 158.085938 153.46875 158.738281 155.429688 C 156.800781 156.429688 154.226562 157.789062 152.351562 158.902344 C 149.726562 158.160156 146.21875 157.175781 143.578125 156.476562 " fill-opacity="1" fill-rule="nonzero"/><path fill="#ffffff" d="M 125.269531 160.277344 C 124.46875 157.863281 123.71875 155.535156 123.023438 153.300781 C 125.125 151.769531 127.9375 149.738281 130.113281 148.308594 C 132.808594 148.878906 136.402344 149.648438 139.078125 150.292969 C 139.730469 152.382812 140.4375 154.566406 141.1875 156.820312 C 139.152344 158.300781 136.453125 160.292969 134.484375 161.859375 C 131.722656 161.359375 128.042969 160.707031 125.269531 160.277344 " fill-opacity="1" fill-rule="nonzero"/><path fill="#ffffff" d="M 106.792969 166.902344 C 105.972656 164.445312 105.207031 162.070312 104.496094 159.792969 C 106.558594 157.796875 109.3125 155.152344 111.449219 153.242188 C 114.183594 153.425781 117.824219 153.6875 120.546875 153.976562 C 121.246094 156.222656 122.003906 158.566406 122.808594 160.992188 C 120.753906 162.898438 118.019531 165.453125 116.027344 167.425781 C 113.257812 167.242188 109.5625 167.003906 106.792969 166.902344 " fill-opacity="1" fill-rule="nonzero"/><path fill="#ffffff" d="M 76.460938 185.898438 C 75.757812 183.777344 75.097656 181.730469 74.484375 179.765625 C 75.8125 177.367188 77.59375 174.171875 78.996094 171.816406 C 81.082031 171.296875 83.871094 170.625 85.984375 170.230469 C 86.65625 172.390625 87.386719 174.644531 88.160156 176.972656 C 86.640625 179.289062 84.625 182.382812 83.164062 184.738281 C 81.144531 185.046875 78.457031 185.472656 76.460938 185.898438 " fill-opacity="1" fill-rule="nonzero"/><path fill="#ffffff" d="M 66.085938 197.015625 C 65.5 195.246094 64.945312 193.539062 64.433594 191.898438 C 65.34375 189.484375 66.566406 186.273438 67.546875 183.890625 C 69.140625 183.070312 71.285156 182 72.945312 181.316406 C 73.546875 183.242188 74.195312 185.253906 74.886719 187.332031 C 73.746094 189.644531 72.234375 192.726562 71.148438 195.0625 C 69.613281 195.601562 67.566406 196.339844 66.085938 197.015625 " fill-opacity="1" fill-rule="nonzero"/><path fill="#ffffff" d="M 59.398438 208.535156 C 58.960938 207.214844 58.546875 205.9375 58.164062 204.710938 C 58.617188 202.402344 59.230469 199.324219 59.761719 197.03125 C 60.804688 195.949219 62.21875 194.527344 63.378906 193.570312 C 63.875 195.160156 64.410156 196.816406 64.980469 198.53125 C 64.246094 200.722656 63.28125 203.640625 62.605469 205.847656 C 61.605469 206.609375 60.28125 207.644531 59.398438 208.535156 " fill-opacity="1" fill-rule="nonzero"/><path fill="#ffffff" d="M 56.765625 219.949219 C 56.503906 219.152344 56.253906 218.382812 56.023438 217.648438 C 55.980469 215.550781 55.941406 212.753906 55.992188 210.65625 C 56.429688 209.367188 57.03125 207.652344 57.636719 206.433594 C 58 207.597656 58.390625 208.8125 58.808594 210.066406 C 58.515625 212.03125 58.132812 214.648438 57.917969 216.617188 C 57.507812 217.59375 57 218.917969 56.765625 219.949219 " fill-opacity="1" fill-rule="nonzero"/><path fill="#ffffff" d="M 58.101562 229.5 C 57.945312 229.023438 57.738281 228.382812 57.585938 227.902344 L 57.460938 227.5 L 56.585938 224.175781 C 56.378906 222.734375 56.121094 220.800781 56.070312 219.34375 C 56.277344 220.011719 56.503906 220.707031 56.742188 221.429688 C 56.921875 223.070312 57.167969 225.257812 57.457031 226.886719 C 57.648438 227.671875 57.851562 228.734375 58.101562 229.5 " fill-opacity="1" fill-rule="nonzero"/><path fill="#ffffff" d="M 204.707031 173.519531 C 204.65625 173.382812 204.609375 173.246094 204.5625 173.113281 L 205.730469 174.792969 L 204.707031 173.519531 " fill-opacity="1" fill-rule="nonzero"/><path fill="#ffffff" d="M 197.289062 168.636719 C 197.003906 167.84375 196.730469 167.070312 196.46875 166.316406 C 197.617188 166.835938 199.140625 167.558594 200.195312 168.246094 C 201.269531 169.378906 202.695312 170.890625 203.714844 172.074219 C 203.789062 172.292969 203.867188 172.515625 203.949219 172.742188 C 203.179688 172.242188 202.125 171.585938 201.261719 171.257812 C 200.078125 170.464844 198.179688 169.753906 197.289062 168.636719 " fill-opacity="1" fill-rule="nonzero"/><path fill="#ffffff" d="M 186.359375 165.957031 C 185.859375 164.582031 185.382812 163.230469 184.925781 161.917969 C 186.378906 161.859375 188.320312 161.808594 189.765625 161.933594 C 191.378906 163.019531 193.53125 164.472656 195.121094 165.59375 C 195.40625 166.425781 195.710938 167.28125 196.027344 168.152344 C 194.847656 168.214844 193.269531 168.332031 192.113281 168.566406 C 190.390625 167.78125 188.085938 166.734375 186.359375 165.957031 " fill-opacity="1" fill-rule="nonzero"/><path fill="#ffffff" d="M 172.585938 165.460938 C 171.902344 163.578125 171.25 161.734375 170.628906 159.9375 C 172.320312 159.347656 174.582031 158.578125 176.316406 158.136719 C 178.378906 159.140625 181.125 160.484375 183.171875 161.515625 C 183.652344 162.898438 184.152344 164.316406 184.679688 165.769531 C 183.191406 166.375 181.21875 167.214844 179.792969 167.945312 C 177.628906 167.199219 174.746094 166.203125 172.585938 165.460938 " fill-opacity="1" fill-rule="nonzero"/><path fill="#ffffff" d="M 139.199219 170.867188 C 138.277344 168.308594 137.390625 165.804688 136.546875 163.363281 C 138.511719 161.820312 141.140625 159.773438 143.171875 158.316406 C 145.820312 159.003906 149.347656 159.933594 151.984375 160.660156 C 152.75 162.878906 153.558594 165.160156 154.398438 167.484375 C 152.539062 169.023438 150.066406 171.089844 148.261719 172.695312 C 145.546875 172.136719 141.925781 171.398438 139.199219 170.867188 " fill-opacity="1" fill-rule="nonzero"/><path fill="#ffffff" d="M 102.992188 184.386719 C 102.03125 181.726562 101.109375 179.117188 100.230469 176.582031 C 102.070312 174.347656 104.535156 171.378906 106.445312 169.203125 C 109.21875 169.335938 112.917969 169.523438 115.683594 169.734375 C 116.574219 172.304688 117.511719 174.945312 118.484375 177.640625 C 116.53125 179.828125 113.933594 182.753906 112.035156 184.984375 C 109.324219 184.789062 105.707031 184.535156 102.992188 184.386719 " fill-opacity="1" fill-rule="nonzero"/><path fill="#ffffff" d="M 87.421875 192.996094 C 86.527344 190.519531 85.667969 188.09375 84.851562 185.734375 C 86.355469 183.398438 88.371094 180.292969 89.929688 178 C 92.359375 177.886719 95.597656 177.753906 98.03125 177.726562 C 98.902344 180.25 99.820312 182.839844 100.777344 185.484375 C 99.109375 187.75 96.890625 190.777344 95.269531 193.078125 C 92.914062 193.027344 89.777344 192.972656 87.421875 192.996094 " fill-opacity="1" fill-rule="nonzero"/><path fill="#ffffff" d="M 74.734375 202.085938 C 73.957031 199.933594 73.210938 197.824219 72.5 195.773438 C 73.636719 193.457031 75.160156 190.375 76.347656 188.085938 C 78.347656 187.730469 81.015625 187.273438 83.03125 187.027344 C 83.835938 189.351562 84.679688 191.742188 85.5625 194.183594 C 84.222656 196.402344 82.441406 199.367188 81.136719 201.605469 C 79.214844 201.71875 76.648438 201.878906 74.734375 202.085938 " fill-opacity="1" fill-rule="nonzero"/><path fill="#ffffff" d="M 59.648438 220.082031 C 59.222656 218.90625 58.8125 217.75 58.425781 216.628906 C 58.71875 214.679688 59.121094 212.085938 59.476562 210.148438 C 60.394531 209.34375 61.636719 208.289062 62.65625 207.617188 C 63.199219 209.1875 63.769531 210.804688 64.367188 212.453125 C 63.773438 214.253906 62.984375 216.660156 62.425781 218.472656 C 61.566406 218.90625 60.417969 219.507812 59.648438 220.082031 " fill-opacity="1" fill-rule="nonzero"/><path fill="#ffffff" d="M 58.058594 228.171875 C 57.855469 227.605469 57.65625 227.050781 57.472656 226.511719 C 57.277344 224.902344 57.035156 222.753906 56.941406 221.136719 C 57.214844 220.171875 57.605469 218.878906 58.050781 217.980469 C 58.414062 219.03125 58.796875 220.109375 59.191406 221.207031 C 59.019531 222.660156 58.792969 224.59375 58.683594 226.050781 C 58.429688 226.664062 58.128906 227.511719 58.058594 228.171875 " fill-opacity="1" fill-rule="nonzero"/><path fill="#ffffff" d="M 58.671875 231.140625 C 58.535156 230.757812 58.359375 230.253906 58.226562 229.871094 L 57.679688 227.761719 C 57.835938 228.21875 58.003906 228.6875 58.175781 229.167969 C 58.375 229.902344 58.585938 230.902344 58.847656 231.621094 L 58.671875 231.140625 " fill-opacity="1" fill-rule="nonzero"/><path fill="#ffffff" d="M 202.34375 173.285156 C 202.144531 172.78125 201.957031 172.28125 201.773438 171.789062 C 202.566406 172.144531 203.621094 172.660156 204.316406 173.183594 L 205.730469 174.792969 L 204.769531 174.378906 C 204.039062 174.050781 202.890625 173.867188 202.34375 173.285156 " fill-opacity="1" fill-rule="nonzero"/><path fill="#ffffff" d="M 194.273438 172.832031 C 193.828125 171.671875 193.390625 170.527344 192.972656 169.398438 C 194.097656 169.1875 195.609375 168.929688 196.753906 168.898438 C 197.972656 169.628906 199.605469 170.601562 200.816406 171.351562 C 201.03125 171.933594 201.253906 172.519531 201.484375 173.117188 C 200.640625 173.367188 199.523438 173.742188 198.734375 174.128906 C 197.394531 173.75 195.605469 173.238281 194.273438 172.832031 " fill-opacity="1" fill-rule="nonzero"/><path fill="#ffffff" d="M 182.890625 174.175781 C 182.222656 172.441406 181.570312 170.726562 180.941406 169.035156 C 182.351562 168.316406 184.242188 167.371094 185.710938 166.78125 C 187.460938 167.515625 189.796875 168.496094 191.546875 169.234375 C 191.996094 170.441406 192.460938 171.667969 192.941406 172.910156 C 191.757812 173.691406 190.191406 174.761719 189.070312 175.632812 C 187.214844 175.207031 184.738281 174.632812 182.890625 174.175781 " fill-opacity="1" fill-rule="nonzero"/><path fill="#ffffff" d="M 168.820312 177.1875 C 167.96875 174.976562 167.136719 172.785156 166.335938 170.632812 C 167.972656 169.445312 170.164062 167.871094 171.863281 166.777344 C 174.046875 167.484375 176.953125 168.429688 179.136719 169.136719 C 179.789062 170.894531 180.464844 172.679688 181.164062 174.484375 C 179.710938 175.734375 177.789062 177.414062 176.394531 178.726562 C 174.121094 178.273438 171.089844 177.660156 168.820312 177.1875 " fill-opacity="1" fill-rule="nonzero"/><path fill="#ffffff" d="M 152.703125 181.71875 C 151.710938 179.152344 150.746094 176.609375 149.8125 174.105469 C 151.609375 172.503906 154.015625 170.382812 155.871094 168.851562 C 158.382812 169.488281 161.730469 170.339844 164.238281 170.984375 C 165.0625 173.195312 165.914062 175.4375 166.785156 177.703125 C 165.132812 179.34375 162.933594 181.546875 161.328125 183.234375 C 158.738281 182.78125 155.289062 182.179688 152.703125 181.71875 " fill-opacity="1" fill-rule="nonzero"/><path fill="#ffffff" d="M 116.871094 194.792969 C 115.777344 191.957031 114.710938 189.144531 113.683594 186.378906 C 115.601562 184.164062 118.171875 181.214844 120.132812 179.035156 C 122.980469 179.375 126.773438 179.832031 129.609375 180.21875 C 130.625 182.949219 131.679688 185.71875 132.761719 188.519531 C 130.875 190.707031 128.363281 193.621094 126.503906 195.824219 C 123.613281 195.507812 119.761719 195.089844 116.871094 194.792969 " fill-opacity="1" fill-rule="nonzero"/><path fill="#ffffff" d="M 85.160156 209.960938 C 84.214844 207.511719 83.296875 205.089844 82.40625 202.703125 C 83.746094 200.480469 85.539062 197.519531 86.90625 195.316406 C 89.242188 195.335938 92.359375 195.371094 94.699219 195.453125 C 95.675781 198.078125 96.683594 200.746094 97.726562 203.4375 C 96.214844 205.585938 94.203125 208.457031 92.707031 210.613281 C 90.445312 210.402344 87.425781 210.128906 85.160156 209.960938 " fill-opacity="1" fill-rule="nonzero"/><path fill="#ffffff" d="M 73.34375 217.097656 C 72.558594 215.058594 71.789062 213.035156 71.046875 211.042969 C 72.039062 208.988281 73.367188 206.253906 74.386719 204.210938 C 76.28125 204.0625 78.816406 203.878906 80.71875 203.816406 C 81.589844 206.160156 82.492188 208.535156 83.417969 210.9375 C 82.210938 212.886719 80.605469 215.484375 79.402344 217.4375 C 77.585938 217.3125 75.164062 217.15625 73.34375 217.097656 " fill-opacity="1" fill-rule="nonzero"/><path fill="#ffffff" d="M 64.820312 223.535156 C 64.230469 222.011719 63.65625 220.5 63.105469 219.011719 C 63.710938 217.226562 64.523438 214.84375 65.160156 213.066406 C 66.539062 212.746094 68.386719 212.339844 69.789062 212.128906 C 70.507812 214.058594 71.25 216.019531 72.015625 218 C 71.148438 219.652344 69.988281 221.855469 69.117188 223.507812 C 67.828125 223.488281 66.109375 223.46875 64.820312 223.535156 " fill-opacity="1" fill-rule="nonzero"/><path fill="#ffffff" d="M 60.027344 228.972656 C 59.675781 228.054688 59.332031 227.148438 58.996094 226.25 C 59.167969 224.824219 59.414062 222.917969 59.644531 221.5 C 60.417969 221.007812 61.480469 220.378906 62.328125 220.023438 C 62.855469 221.4375 63.398438 222.871094 63.960938 224.324219 C 63.464844 225.589844 62.804688 227.28125 62.320312 228.554688 C 61.625 228.644531 60.695312 228.761719 60.027344 228.972656 " fill-opacity="1" fill-rule="nonzero"/><path fill="#ffffff" d="M 59.347656 232.953125 L 59.132812 232.390625 L 58.949219 231.894531 C 58.71875 231.0625 58.394531 229.953125 58.242188 229.101562 C 58.335938 228.5 58.484375 227.679688 58.761719 227.136719 C 59.0625 227.949219 59.375 228.773438 59.699219 229.601562 C 59.605469 230.414062 59.488281 231.496094 59.457031 232.308594 C 59.390625 232.492188 59.296875 232.765625 59.347656 232.953125 " fill-opacity="1" fill-rule="nonzero"/><path fill="#ffffff" d="M 205.292969 175.035156 C 205.230469 174.886719 205.171875 174.738281 205.113281 174.589844 L 205.730469 174.792969 L 205.292969 175.035156 " fill-opacity="1" fill-rule="nonzero"/><path fill="#ffffff" d="M 200.621094 177.253906 C 200.273438 176.40625 199.933594 175.558594 199.597656 174.71875 C 200.34375 174.34375 201.355469 173.851562 202.160156 173.621094 C 202.894531 173.890625 203.875 174.253906 204.617188 174.5 C 204.714844 174.746094 204.8125 174.988281 204.914062 175.234375 C 204.464844 175.71875 203.882812 176.386719 203.488281 176.914062 C 202.632812 177.058594 201.484375 177.214844 200.621094 177.253906 " fill-opacity="1" fill-rule="nonzero"/><path fill="#ffffff" d="M 180.511719 185.972656 C 179.6875 183.960938 178.875 181.945312 178.082031 179.941406 C 179.449219 178.628906 181.28125 176.886719 182.710938 175.636719 C 184.566406 176.035156 187.046875 176.566406 188.914062 176.929688 C 189.527344 178.472656 190.152344 180.023438 190.789062 181.578125 C 189.644531 183 188.128906 184.902344 187.027344 186.359375 C 185.074219 186.265625 182.464844 186.128906 180.511719 185.972656 " fill-opacity="1" fill-rule="nonzero"/><path fill="#ffffff" d="M 166.253906 191.980469 C 165.253906 189.539062 164.269531 187.097656 163.304688 184.667969 C 164.894531 182.980469 167.015625 180.730469 168.652344 179.085938 C 170.929688 179.519531 173.964844 180.089844 176.25 180.496094 C 177.066406 182.5625 177.90625 184.640625 178.757812 186.71875 C 177.355469 188.496094 175.492188 190.871094 174.125 192.675781 C 171.761719 192.484375 168.613281 192.21875 166.253906 191.980469 " fill-opacity="1" fill-rule="nonzero"/><path fill="#ffffff" d="M 97.851562 219.980469 C 96.765625 217.332031 95.695312 214.679688 94.652344 212.046875 C 96.179688 209.894531 98.214844 207.03125 99.753906 204.890625 C 102.378906 205.171875 105.878906 205.542969 108.503906 205.84375 C 109.617188 208.65625 110.757812 211.488281 111.917969 214.320312 C 110.261719 216.4375 108.050781 219.257812 106.390625 221.367188 C 103.828125 220.953125 100.414062 220.394531 97.851562 219.980469 " fill-opacity="1" fill-rule="nonzero"/><path fill="#ffffff" d="M 72.5625 229.933594 C 71.8125 228.101562 71.074219 226.265625 70.351562 224.441406 C 71.261719 222.808594 72.480469 220.632812 73.390625 219 C 75.203125 219.121094 77.621094 219.296875 79.429688 219.476562 C 80.316406 221.710938 81.21875 223.960938 82.140625 226.210938 C 81.011719 227.738281 79.496094 229.769531 78.335938 231.269531 C 76.605469 230.863281 74.296875 230.316406 72.5625 229.933594 " fill-opacity="1" fill-rule="nonzero"/><path fill="#ffffff" d="M 64.609375 232.921875 C 64.09375 231.664062 63.585938 230.402344 63.089844 229.148438 C 63.632812 227.902344 64.355469 226.242188 64.898438 224.996094 C 66.183594 225.007812 67.898438 225.046875 69.179688 225.132812 C 69.875 226.886719 70.585938 228.648438 71.308594 230.414062 C 70.5 231.527344 69.414062 233.007812 68.566406 234.089844 C 67.382812 233.730469 65.800781 233.253906 64.609375 232.921875 " fill-opacity="1" fill-rule="nonzero"/><path fill="#ffffff" d="M 60.4375 234.335938 C 60.191406 233.730469 59.945312 233.125 59.707031 232.523438 C 59.824219 231.734375 59.992188 230.683594 60.144531 229.902344 C 60.820312 229.796875 61.726562 229.6875 62.40625 229.679688 C 62.871094 230.847656 63.347656 232.027344 63.828125 233.207031 C 63.386719 233.835938 62.796875 234.679688 62.308594 235.273438 C 61.746094 234.996094 60.863281 234.796875 60.4375 234.335938 " fill-opacity="1" fill-rule="nonzero"/><path fill="#ffffff" d="M 60.027344 234.648438 C 59.722656 233.910156 59.722656 233.910156 59.578125 233.535156 L 59.457031 233.230469 C 59.476562 233.125 59.507812 232.988281 59.527344 232.882812 L 59.578125 232.855469 C 59.777344 233.367188 59.984375 233.878906 60.195312 234.390625 C 60.15625 234.492188 60.148438 234.664062 60.054688 234.71875 L 60.027344 234.648438 " fill-opacity="1" fill-rule="nonzero"/><path fill="#ffffff" d="M 204.515625 178.597656 C 204.300781 178.09375 204.082031 177.582031 203.867188 177.074219 C 204.230469 176.527344 204.71875 175.792969 205.132812 175.285156 L 205.730469 174.792969 L 205.652344 176.503906 C 205.375 177.164062 204.96875 178.042969 204.515625 178.597656 " fill-opacity="1" fill-rule="nonzero"/><path fill="#ffffff" d="M 199.269531 185.035156 C 198.769531 183.875 198.269531 182.703125 197.777344 181.527344 C 198.527344 180.484375 199.53125 179.09375 200.328125 178.085938 C 201.21875 177.972656 202.414062 177.816406 203.285156 177.582031 C 203.539062 178.1875 203.792969 178.789062 204.050781 179.382812 C 203.617188 180.59375 203.039062 182.210938 202.601562 183.421875 C 201.628906 183.957031 200.308594 184.640625 199.269531 185.035156 " fill-opacity="1" fill-rule="nonzero"/><path fill="#ffffff" d="M 190.371094 192.445312 C 189.621094 190.710938 188.871094 188.957031 188.132812 187.199219 C 189.210938 185.726562 190.648438 183.769531 191.765625 182.332031 C 193.246094 182.328125 195.214844 182.3125 196.6875 182.21875 C 197.214844 183.476562 197.75 184.726562 198.289062 185.96875 C 197.480469 187.585938 196.414062 189.746094 195.621094 191.371094 C 194.054688 191.734375 191.960938 192.195312 190.371094 192.445312 " fill-opacity="1" fill-rule="nonzero"/><path fill="#ffffff" d="M 111.550781 231.078125 C 110.371094 228.355469 109.199219 225.605469 108.042969 222.847656 C 109.714844 220.738281 111.945312 217.925781 113.617188 215.8125 C 116.445312 216.195312 120.21875 216.699219 123.050781 217.058594 C 124.253906 219.933594 125.472656 222.792969 126.703125 225.628906 C 124.941406 227.75 122.589844 230.578125 120.808594 232.683594 C 118.03125 232.214844 114.324219 231.582031 111.550781 231.078125 " fill-opacity="1" fill-rule="nonzero"/><path fill="#ffffff" d="M 95.722656 235.75 C 94.65625 233.296875 93.605469 230.824219 92.5625 228.34375 C 94.011719 226.5 95.9375 224.042969 97.367188 222.1875 C 99.917969 222.625 103.316406 223.210938 105.867188 223.648438 C 107.011719 226.382812 108.171875 229.101562 109.339844 231.796875 C 107.757812 233.609375 105.644531 236.019531 104.027344 237.800781 C 101.535156 237.191406 98.210938 236.378906 95.722656 235.75 " fill-opacity="1" fill-rule="nonzero"/><path fill="#ffffff" d="M 82.160156 238.625 C 81.273438 236.578125 80.394531 234.511719 79.523438 232.441406 C 80.707031 230.949219 82.277344 228.957031 83.429688 227.441406 C 85.605469 227.894531 88.507812 228.503906 90.679688 228.96875 C 91.703125 231.40625 92.738281 233.832031 93.777344 236.238281 C 92.417969 237.664062 90.597656 239.5625 89.1875 240.941406 C 87.078125 240.25 84.265625 239.324219 82.160156 238.625 " fill-opacity="1" fill-rule="nonzero"/><path fill="#ffffff" d="M 71.40625 239.617188 C 70.742188 238.085938 70.085938 236.546875 69.433594 234.996094 C 70.308594 233.929688 71.464844 232.5 72.300781 231.402344 C 74.011719 231.835938 76.296875 232.417969 78.003906 232.871094 C 78.847656 234.878906 79.699219 236.882812 80.558594 238.863281 C 79.464844 239.84375 77.996094 241.148438 76.84375 242.054688 C 75.207031 241.328125 72.65625 240.890625 71.40625 239.617188 " fill-opacity="1" fill-rule="nonzero"/><path fill="#ffffff" d="M 63.992188 238.648438 C 63.589844 237.726562 63.195312 236.800781 62.804688 235.867188 C 63.324219 235.292969 64 234.507812 64.46875 233.890625 C 65.632812 234.28125 67.1875 234.808594 68.34375 235.210938 C 68.964844 236.683594 69.589844 238.148438 70.21875 239.601562 C 69.4375 240.085938 68.386719 240.730469 67.539062 241.09375 C 66.46875 240.371094 64.800781 239.65625 63.992188 238.648438 " fill-opacity="1" fill-rule="nonzero"/><path fill="#ffffff" d="M 60.585938 235.964844 L 60.503906 235.78125 C 60.398438 235.535156 60.257812 235.207031 60.15625 234.960938 C 60.253906 234.917969 60.375 234.824219 60.433594 234.734375 C 60.964844 235.078125 61.671875 235.527344 62.210938 235.851562 C 62.566406 236.691406 62.925781 237.535156 63.285156 238.367188 C 62.839844 238.328125 62.21875 238.234375 61.832031 238.007812 C 61.441406 237.402344 60.882812 236.617188 60.585938 235.964844 " fill-opacity="1" fill-rule="nonzero"/><path fill="#ffffff" d="M 205.949219 176.550781 C 205.886719 176.414062 205.820312 176.269531 205.757812 176.125 L 205.730469 174.792969 L 205.949219 176.550781 " fill-opacity="1" fill-rule="nonzero"/><path fill="#ffffff" d="M 204.363281 185.875 C 203.996094 185.082031 203.632812 184.277344 203.265625 183.457031 C 203.644531 182.21875 204.148438 180.566406 204.515625 179.328125 C 204.925781 178.671875 205.449219 177.765625 205.675781 177.027344 C 205.78125 177.261719 205.886719 177.496094 205.992188 177.726562 C 206 179.148438 205.992188 181.046875 205.9375 182.46875 C 205.53125 183.515625 204.953125 184.914062 204.363281 185.875 " fill-opacity="1" fill-rule="nonzero"/><g clip-path="url(#aae409d682)"><path fill="#ffffff" d="M 70.1875 245.773438 C 69.644531 244.59375 69.101562 243.390625 68.558594 242.171875 C 69.433594 241.789062 70.589844 241.242188 71.402344 240.742188 C 73.027344 241.53125 75.195312 242.582031 76.828125 243.351562 C 77.585938 245.058594 78.347656 246.742188 79.113281 248.390625 C 77.996094 248.753906 76.496094 249.222656 75.335938 249.421875 C 73.78125 248.34375 71.382812 247.242188 70.1875 245.773438 " fill-opacity="1" fill-rule="nonzero"/></g><path fill="#ffffff" d="M 63.117188 240.5 C 62.855469 239.933594 62.59375 239.359375 62.332031 238.769531 C 62.804688 238.96875 63.472656 239.199219 63.984375 239.203125 C 65.035156 240.011719 66.4375 241.078125 67.515625 241.847656 C 68.023438 242.984375 68.53125 244.109375 69.042969 245.210938 C 68.203125 245.011719 67.082031 244.710938 66.308594 244.328125 C 65.324219 243.203125 63.886719 241.78125 63.117188 240.5 " fill-opacity="1" fill-rule="nonzero"/><path fill="#ffffff" d="M 61.042969 237 C 60.945312 236.777344 60.8125 236.484375 60.714844 236.261719 C 61.035156 236.832031 61.433594 237.613281 61.800781 238.15625 C 62.023438 238.652344 62.246094 239.140625 62.464844 239.621094 L 61.480469 237.945312 C 61.347656 237.664062 61.171875 237.285156 61.042969 237 " fill-opacity="1" fill-rule="nonzero"/><path fill="#ffffff" d="M 206.796875 183.535156 C 206.589844 183.125 206.378906 182.6875 206.160156 182.226562 L 206.15625 182.214844 C 206.144531 180.761719 206.125 178.820312 206.042969 177.367188 L 205.730469 174.792969 L 206.554688 178.417969 C 206.6875 179.949219 206.84375 182 206.796875 183.535156 " fill-opacity="1" fill-rule="nonzero"/><path fill="#ffffff" d="M 206.566406 177.789062 C 206.515625 177.695312 206.460938 177.597656 206.40625 177.488281 L 205.730469 174.792969 L 206.566406 177.789062 " fill-opacity="1" fill-rule="nonzero"/><path fill="#ffffff" d="M 206.996094 178.472656 C 206.964844 178.4375 206.933594 178.390625 206.894531 178.335938 L 205.730469 174.792969 L 206.996094 178.472656 " fill-opacity="1" fill-rule="nonzero"/><g fill="#ffffff" fill-opacity="1"><g transform="translate(130.59042, 251.321511)"><g><path d="M 4.828125 -36.6875 L 4.828125 -41.59375 C 4.828125 -46.59375 6.113281 -50.046875 8.6875 -51.953125 C 11.257812 -53.859375 14.875 -54.8125 19.53125 -54.8125 C 22.90625 -54.8125 29.097656 -54.21875 38.109375 -53.03125 L 38.109375 -48.578125 L 19.53125 -49.328125 C 18.9375 -49.367188 18.414062 -49.390625 17.96875 -49.390625 C 15.445312 -49.390625 13.539062 -48.859375 12.25 -47.796875 C 10.96875 -46.734375 10.328125 -44.664062 10.328125 -41.59375 L 10.328125 -36.6875 C 10.328125 -33.625 10.929688 -31.644531 12.140625 -30.75 C 13.359375 -29.863281 15.28125 -29.421875 17.90625 -29.421875 L 28.453125 -29.421875 C 36.171875 -29.421875 40.03125 -25.160156 40.03125 -16.640625 L 40.03125 -11.59375 C 40.03125 -9.0625 39.609375 -6.953125 38.765625 -5.265625 C 37.929688 -3.585938 36.742188 -2.335938 35.203125 -1.515625 C 33.671875 -0.703125 32.113281 -0.148438 30.53125 0.140625 C 28.945312 0.441406 27.113281 0.59375 25.03125 0.59375 C 23.300781 0.59375 20.242188 0.367188 15.859375 -0.078125 C 11.472656 -0.523438 8.34375 -0.921875 6.46875 -1.265625 L 6.46875 -5.71875 C 11.914062 -5.175781 18.101562 -4.90625 25.03125 -4.90625 C 31.375 -4.90625 34.546875 -7.132812 34.546875 -11.59375 L 34.546875 -16.640625 C 34.546875 -18.960938 34.097656 -20.753906 33.203125 -22.015625 C 32.304688 -23.285156 30.722656 -23.921875 28.453125 -23.921875 L 18.046875 -23.921875 C 15.222656 -23.921875 12.882812 -24.265625 11.03125 -24.953125 C 9.175781 -25.648438 7.828125 -26.664062 6.984375 -28 C 6.140625 -29.34375 5.566406 -30.671875 5.265625 -31.984375 C 4.972656 -33.296875 4.828125 -34.863281 4.828125 -36.6875 Z M 4.828125 -36.6875 "/></g></g></g><g fill="#ffffff" fill-opacity="1"><g transform="translate(173.966089, 251.321511)"><g><path d="M 1.484375 -34.015625 L 1.484375 -38.1875 L 8.84375 -39.515625 L 10.171875 -50.515625 L 14.34375 -50.515625 L 14.34375 -39.515625 L 25.84375 -39.515625 L 25.84375 -34.015625 L 14.34375 -34.015625 L 14.34375 -14.109375 C 14.34375 -11.085938 14.6875 -8.992188 15.375 -7.828125 C 16.070312 -6.671875 17.132812 -5.921875 18.5625 -5.578125 C 22.625 -4.535156 24.832031 -4.015625 25.1875 -4.015625 L 25.1875 -0.078125 L 18.640625 -0.078125 C 12.109375 -0.078125 8.84375 -4.753906 8.84375 -14.109375 L 8.84375 -34.015625 Z M 1.484375 -34.015625 "/></g></g></g><g fill="#ffffff" fill-opacity="1"><g transform="translate(202.041431, 251.321511)"><g><path d="M 4.453125 0 L 4.453125 -39.4375 L 8.3125 -39.4375 L 9.953125 -34.46875 C 10.203125 -34.613281 10.832031 -34.984375 11.84375 -35.578125 C 12.863281 -36.171875 13.535156 -36.550781 13.859375 -36.71875 C 14.179688 -36.894531 14.785156 -37.207031 15.671875 -37.65625 C 16.566406 -38.101562 17.269531 -38.410156 17.78125 -38.578125 C 18.300781 -38.753906 18.96875 -38.96875 19.78125 -39.21875 C 20.601562 -39.46875 21.410156 -39.640625 22.203125 -39.734375 C 23.003906 -39.835938 23.820312 -39.890625 24.65625 -39.890625 C 27.53125 -39.890625 29.363281 -39.691406 30.15625 -39.296875 L 30.15625 -33.875 C 28.96875 -34.164062 27.132812 -34.3125 24.65625 -34.3125 C 22.78125 -34.3125 20.988281 -34.113281 19.28125 -33.71875 C 17.570312 -33.320312 16.207031 -32.898438 15.1875 -32.453125 C 14.175781 -32.015625 12.429688 -31.203125 9.953125 -30.015625 L 9.953125 0 Z M 4.453125 0 "/></g></g></g><g fill="#ffffff" fill-opacity="1"><g transform="translate(233.681906, 251.321511)"><g><path d="M 3.71875 -45.828125 L 3.71875 -49.84375 C 3.71875 -51.082031 4.3125 -51.703125 5.5 -51.703125 L 9.203125 -51.703125 C 10.347656 -51.703125 10.921875 -51.082031 10.921875 -49.84375 L 10.921875 -45.828125 C 10.921875 -44.691406 10.347656 -44.125 9.203125 -44.125 L 5.5 -44.125 C 4.3125 -44.125 3.71875 -44.691406 3.71875 -45.828125 Z M 4.453125 0 L 4.453125 -39.4375 L 9.953125 -39.4375 L 9.953125 0 Z M 4.453125 0 "/></g></g></g><g fill="#ffffff" fill-opacity="1"><g transform="translate(248.313771, 251.321511)"><g><path d="M 1.484375 -39.4375 L 7.5 -39.4375 L 19.828125 -8.09375 L 32.3125 -39.4375 L 38.328125 -39.4375 L 22.5 0 L 17.015625 0 Z M 1.484375 -39.4375 "/></g></g></g><g fill="#ffffff" fill-opacity="1"><g transform="translate(288.124319, 251.321511)"><g><path d="M 3.71875 -19.90625 C 3.71875 -24.257812 4.015625 -27.757812 4.609375 -30.40625 C 5.203125 -33.0625 6.273438 -35.070312 7.828125 -36.4375 C 9.390625 -37.800781 11.125 -38.691406 13.03125 -39.109375 C 14.9375 -39.523438 17.578125 -39.734375 20.953125 -39.734375 C 23.671875 -39.734375 25.796875 -39.609375 27.328125 -39.359375 C 28.867188 -39.117188 30.378906 -38.550781 31.859375 -37.65625 C 33.347656 -36.769531 34.414062 -35.359375 35.0625 -33.421875 C 35.707031 -31.492188 36.03125 -28.945312 36.03125 -25.78125 C 36.03125 -19.738281 32.632812 -16.71875 25.84375 -16.71875 L 9.203125 -16.71875 C 9.203125 -12.113281 9.722656 -9.03125 10.765625 -7.46875 C 11.804688 -5.90625 13.789062 -5.125 16.71875 -5.125 C 17.0625 -5.125 17.578125 -5.125 18.265625 -5.125 C 18.960938 -5.125 19.484375 -5.125 19.828125 -5.125 C 26.765625 -5.125 31.914062 -5.375 35.28125 -5.875 L 35.28125 -1.703125 C 30.382812 -0.316406 24.195312 0.375 16.71875 0.375 C 11.707031 0.375 8.285156 -1.0625 6.453125 -3.9375 C 4.628906 -6.8125 3.71875 -12.132812 3.71875 -19.90625 Z M 9.203125 -22.140625 L 25.84375 -22.140625 C 28.96875 -22.140625 30.53125 -23.351562 30.53125 -25.78125 C 30.53125 -29.59375 29.972656 -31.957031 28.859375 -32.875 C 27.742188 -33.789062 25.128906 -34.25 21.015625 -34.25 C 19.285156 -34.25 18.007812 -34.222656 17.1875 -34.171875 C 16.375 -34.117188 15.410156 -33.976562 14.296875 -33.75 C 13.179688 -33.53125 12.390625 -33.171875 11.921875 -32.671875 C 11.453125 -32.179688 10.957031 -31.488281 10.4375 -30.59375 C 9.914062 -29.707031 9.578125 -28.570312 9.421875 -27.1875 C 9.273438 -25.800781 9.203125 -24.117188 9.203125 -22.140625 Z M 9.203125 -22.140625 "/></g></g></g></svg>