<svg xmlns="http://www.w3.org/2000/svg" xmlns:xlink="http://www.w3.org/1999/xlink" width="500" zoomAndPan="magnify" viewBox="0 0 375 374.999991" height="500" preserveAspectRatio="xMidYMid meet" version="1.0"><defs><clipPath id="dbb9781d6f"><path d="M 159 51.867188 L 197 51.867188 L 197 57 L 159 57 Z M 159 51.867188 " clip-rule="nonzero"/></clipPath><clipPath id="925957f875"><path d="M 20.050781 181 L 26 181 L 26 218 L 20.050781 218 Z M 20.050781 181 " clip-rule="nonzero"/></clipPath><clipPath id="92190b0cc4"><path d="M 20.050781 207 L 24 207 L 24 243 L 20.050781 243 Z M 20.050781 207 " clip-rule="nonzero"/></clipPath><clipPath id="54d7f5d5fa"><path d="M 51 304 L 75 304 L 75 323.367188 L 51 323.367188 Z M 51 304 " clip-rule="nonzero"/></clipPath></defs><path fill="#ffffff" d="M 118.53125 69.742188 C 118.824219 68.796875 119.257812 68.195312 119.824219 67.929688 L 127.449219 64.609375 C 134.613281 62.019531 144.261719 58.808594 151.59375 56.75 L 155.195312 55.917969 C 154.589844 56.15625 154.128906 56.761719 153.828125 57.746094 C 148.332031 59.65625 141.019531 62.265625 135.660156 64.535156 C 130.488281 65.964844 123.589844 67.9375 118.53125 69.742188 " fill-opacity="1" fill-rule="nonzero"/><path fill="#ffffff" d="M 82.804688 92 C 83.023438 91.292969 83.320312 90.785156 83.703125 90.476562 L 83.832031 90.371094 C 98.25 79.609375 98.527344 79.402344 106.636719 74.75 L 114.632812 70.445312 C 114.089844 70.71875 113.675781 71.316406 113.390625 72.230469 C 108.433594 75.394531 101.84375 79.664062 97.097656 83.140625 C 92.742188 85.6875 86.953125 89.132812 82.804688 92 " fill-opacity="1" fill-rule="nonzero"/><path fill="#ffffff" d="M 348.570312 151.53125 L 348.722656 151.636719 L 352.058594 159.683594 L 348.570312 151.53125 " fill-opacity="1" fill-rule="nonzero"/><path fill="#ffffff" d="M 337.710938 132.609375 C 337.765625 132.433594 337.851562 132.324219 337.960938 132.28125 C 340.800781 137.078125 344.542969 143.503906 347.089844 148.460938 L 352.058594 159.683594 L 346.894531 148.726562 C 344.21875 143.84375 340.613281 137.359375 337.710938 132.609375 " fill-opacity="1" fill-rule="nonzero"/><path fill="#ffffff" d="M 311.070312 100.800781 C 311.195312 100.394531 311.386719 100.144531 311.636719 100.046875 C 315.496094 103.886719 320.605469 109.042969 324.234375 113.101562 C 327.503906 117.390625 331.832031 123.140625 334.886719 127.589844 C 334.757812 127.636719 334.65625 127.765625 334.59375 127.976562 C 331.320312 123.789062 326.910156 118.226562 323.375 114.253906 C 319.746094 110.164062 314.878906 104.726562 311.070312 100.800781 " fill-opacity="1" fill-rule="nonzero"/><path fill="#ffffff" d="M 278.234375 76.605469 C 278.421875 76 278.707031 75.621094 279.082031 75.472656 C 283.738281 78.269531 289.917969 82.042969 294.402344 85.101562 C 298.433594 88.394531 303.78125 92.828125 307.636719 96.328125 C 307.367188 96.433594 307.164062 96.699219 307.03125 97.136719 C 302.875 94.019531 297.300781 89.898438 292.945312 87.0625 C 288.582031 83.851562 282.742188 79.605469 278.234375 76.605469 " fill-opacity="1" fill-rule="nonzero"/><path fill="#ffffff" d="M 240.878906 60.71875 C 241.121094 59.941406 241.480469 59.460938 241.960938 59.273438 C 247.183594 60.933594 254.136719 63.203125 259.253906 65.171875 C 263.835938 67.375 269.933594 70.363281 274.382812 72.828125 C 273.992188 72.980469 273.695312 73.371094 273.5 74.003906 C 268.679688 72.035156 262.226562 69.457031 257.285156 67.8125 C 252.402344 65.597656 245.871094 62.675781 240.878906 60.71875 " fill-opacity="1" fill-rule="nonzero"/><path fill="#ffffff" d="M 200.683594 53.820312 C 200.960938 52.917969 201.382812 52.363281 201.941406 52.144531 C 207.351562 52.574219 214.578125 53.175781 219.953125 53.933594 L 220.695312 54.054688 C 225.542969 55.070312 232.007812 56.46875 236.78125 57.792969 C 236.289062 57.980469 235.917969 58.472656 235.675781 59.269531 C 230.40625 58.519531 223.371094 57.578125 218.0625 57.191406 C 212.871094 56.074219 205.933594 54.628906 200.683594 53.820312 " fill-opacity="1" fill-rule="nonzero"/><g clip-path="url(#dbb9781d6f)"><path fill="#ffffff" d="M 159.316406 56.613281 C 159.617188 55.632812 160.074219 55.03125 160.675781 54.796875 L 167.808594 53.566406 C 171.957031 53.128906 177.476562 52.382812 181.636719 52.109375 L 186.738281 51.859375 L 196.5 51.917969 C 195.933594 52.140625 195.507812 52.703125 195.226562 53.621094 C 189.734375 54.164062 182.40625 54.953125 176.964844 55.875 C 171.667969 55.96875 164.597656 56.15625 159.316406 56.613281 " fill-opacity="1" fill-rule="nonzero"/></g><path fill="#ffffff" d="M 54.445312 121.3125 C 54.578125 120.882812 54.746094 120.53125 54.941406 120.265625 C 57.699219 116.898438 61.269531 112.324219 64.167969 109.078125 C 68.644531 104.460938 74.691406 98.375 79.445312 94.050781 C 79.09375 94.359375 78.8125 94.847656 78.605469 95.519531 C 74.578125 99.617188 69.253906 105.132812 65.484375 109.46875 C 62.078125 112.933594 57.582031 117.601562 54.445312 121.3125 " fill-opacity="1" fill-rule="nonzero"/><path fill="#ffffff" d="M 348.410156 152.078125 C 348.398438 151.957031 348.390625 151.855469 348.394531 151.773438 L 352.058594 159.683594 L 348.410156 152.078125 " fill-opacity="1" fill-rule="nonzero"/><path fill="#ffffff" d="M 325.558594 118.769531 C 325.480469 118.078125 325.449219 117.5 325.46875 117.035156 C 328.84375 121.105469 333.304688 126.582031 336.414062 130.859375 C 339.3125 135.585938 343.144531 141.917969 345.820312 146.773438 C 345.8125 146.910156 345.820312 147.078125 345.84375 147.273438 C 343.152344 142.964844 339.515625 137.234375 336.53125 133.117188 C 333.304688 128.765625 327.652344 123.769531 325.558594 118.769531 " fill-opacity="1" fill-rule="nonzero"/><path fill="#ffffff" d="M 295.660156 92.511719 C 295.523438 91.300781 295.472656 90.296875 295.503906 89.492188 C 299.730469 92.4375 305.332031 96.417969 309.347656 99.636719 C 313.164062 103.574219 318.222656 108.851562 321.859375 112.953125 C 321.839844 113.460938 321.871094 114.097656 321.957031 114.863281 C 318.332031 111.691406 313.457031 107.496094 309.605469 104.609375 C 305.472656 100.921875 298.300781 97.378906 295.660156 92.511719 " fill-opacity="1" fill-rule="nonzero"/><path fill="#ffffff" d="M 260.386719 73.929688 C 260.199219 72.28125 260.132812 70.90625 260.175781 69.800781 C 265.023438 71.558594 271.46875 73.957031 276.183594 76.039062 C 280.703125 79.078125 286.710938 83.167969 291.089844 86.410156 C 291.050781 87.257812 291.105469 88.316406 291.25 89.589844 C 286.894531 87.609375 281.058594 85.023438 276.5625 83.390625 C 271.75 80.488281 265.3125 76.640625 260.386719 73.929688 " fill-opacity="1" fill-rule="nonzero"/><path fill="#ffffff" d="M 221.417969 63.652344 C 221.191406 61.648438 221.109375 59.980469 221.167969 58.644531 C 226.410156 59.152344 233.402344 59.890625 238.597656 60.757812 C 243.609375 62.789062 250.273438 65.539062 255.175781 67.816406 C 255.128906 68.953125 255.199219 70.371094 255.390625 72.074219 C 250.515625 71.339844 243.996094 70.425781 239.082031 70.074219 C 233.8125 68.0625 226.769531 65.421875 221.417969 63.652344 " fill-opacity="1" fill-rule="nonzero"/><path fill="#ffffff" d="M 180.429688 62.296875 C 180.175781 60.054688 180.082031 58.183594 180.144531 56.6875 C 185.566406 55.894531 192.808594 54.890625 198.273438 54.472656 C 203.550781 55.378906 210.582031 56.636719 215.800781 57.84375 C 215.746094 59.207031 215.828125 60.902344 216.058594 62.945312 C 210.875 63.5 203.957031 64.308594 198.828125 65.25 C 193.324219 64.261719 185.976562 62.988281 180.429688 62.296875 " fill-opacity="1" fill-rule="nonzero"/><path fill="#ffffff" d="M 139.089844 70.496094 C 138.824219 68.136719 138.726562 66.171875 138.789062 64.597656 C 144.164062 62.453125 151.363281 59.648438 156.875 57.871094 C 162.195312 57.53125 169.304688 57.140625 174.636719 57.15625 C 174.574219 58.667969 174.667969 60.554688 174.925781 62.820312 C 169.644531 64.703125 162.617188 67.277344 157.472656 69.507812 C 151.953125 69.683594 144.585938 69.96875 139.089844 70.496094 " fill-opacity="1" fill-rule="nonzero"/><path fill="#ffffff" d="M 100.105469 88.320312 C 99.839844 85.984375 99.742188 84.042969 99.8125 82.484375 C 104.652344 79.097656 111.15625 74.632812 116.214844 71.570312 C 121.320312 69.894531 128.152344 67.722656 133.367188 66.425781 C 133.300781 68.003906 133.398438 69.972656 133.667969 72.335938 C 128.542969 75.542969 121.738281 79.875 116.828125 83.394531 C 111.773438 84.75 105.046875 86.609375 100.105469 88.320312 " fill-opacity="1" fill-rule="nonzero"/><path fill="#ffffff" d="M 67.894531 113.617188 C 67.648438 111.445312 67.558594 109.636719 67.621094 108.191406 C 71.507812 103.914062 76.742188 98.246094 80.878906 94.214844 C 85.078125 91.480469 90.722656 87.886719 95.117188 85.484375 C 95.054688 87.035156 95.148438 88.964844 95.410156 91.285156 C 91.140625 95.46875 85.488281 101.09375 81.460938 105.511719 C 77.324219 107.828125 71.832031 110.972656 67.894531 113.617188 " fill-opacity="1" fill-rule="nonzero"/><path fill="#ffffff" d="M 43.390625 144.71875 C 43.175781 142.828125 43.097656 141.257812 43.152344 139.996094 C 45.996094 135.074219 49.839844 128.535156 52.957031 123.78125 C 56.152344 120.1875 60.457031 115.433594 63.914062 112.097656 C 63.855469 113.523438 63.941406 115.308594 64.183594 117.445312 C 60.886719 122.328125 56.523438 128.867188 53.480469 133.910156 C 50.359375 137.058594 46.230469 141.3125 43.390625 144.71875 " fill-opacity="1" fill-rule="nonzero"/><path fill="#ffffff" d="M 27.28125 180.027344 C 27.113281 178.523438 27.050781 177.273438 27.09375 176.269531 C 28.804688 170.941406 31.136719 163.847656 33.140625 158.617188 C 35.246094 154.355469 38.113281 148.6875 40.523438 144.585938 C 40.472656 145.816406 40.550781 147.351562 40.753906 149.195312 C 38.511719 154.507812 35.558594 161.617188 33.570312 167.03125 C 31.574219 170.875 28.960938 176.035156 27.28125 180.027344 " fill-opacity="1" fill-rule="nonzero"/><g clip-path="url(#925957f875)"><path fill="#ffffff" d="M 20.25 217.964844 C 20.136719 216.933594 20.09375 216.074219 20.121094 215.382812 L 20.230469 213.578125 L 20.957031 205.371094 L 22.449219 194.996094 C 23.347656 190.882812 24.503906 185.386719 25.628906 181.332031 C 25.589844 182.296875 25.652344 183.5 25.8125 184.945312 C 24.703125 190.441406 23.269531 197.777344 22.421875 203.320312 C 21.65625 207.695312 20.695312 213.542969 20.25 217.964844 " fill-opacity="1" fill-rule="nonzero"/></g><path fill="#ffffff" d="M 338.210938 136.976562 C 338.1875 136.882812 338.167969 136.792969 338.148438 136.703125 C 338.019531 136.148438 337.921875 135.644531 337.839844 135.195312 C 340.667969 139.371094 344.390625 144.976562 346.925781 149.339844 L 352.058594 159.683594 L 347.21875 150.757812 C 344.585938 146.578125 340.21875 141.492188 338.210938 136.976562 " fill-opacity="1" fill-rule="nonzero"/><path fill="#ffffff" d="M 312.214844 110.828125 C 312.164062 110.617188 312.117188 110.40625 312.070312 110.203125 C 311.78125 108.921875 311.546875 107.769531 311.367188 106.734375 C 315.089844 109.699219 320.019531 113.707031 323.503906 116.949219 C 326.941406 121.121094 331.488281 126.710938 334.746094 131.027344 C 334.839844 131.554688 334.957031 132.148438 335.105469 132.804688 C 335.132812 132.910156 335.15625 133.019531 335.179688 133.125 C 332.15625 130.039062 328.078125 125.957031 324.792969 123.148438 C 321.0625 119.410156 314.851562 115.40625 312.214844 110.828125 " fill-opacity="1" fill-rule="nonzero"/><path fill="#ffffff" d="M 279.949219 91.621094 C 279.871094 91.304688 279.800781 90.988281 279.734375 90.679688 C 279.296875 88.769531 278.949219 87.039062 278.675781 85.492188 C 283.074219 87.207031 288.921875 89.554688 293.167969 91.617188 C 297.46875 95.121094 303.183594 99.824219 307.34375 103.488281 C 307.539062 104.59375 307.792969 105.828125 308.101562 107.195312 C 308.152344 107.417969 308.203125 107.644531 308.253906 107.867188 C 304.441406 106.019531 299.320312 103.605469 295.347656 102.121094 C 290.757812 98.925781 283.152344 96.203125 279.949219 91.621094 " fill-opacity="1" fill-rule="nonzero"/><path fill="#ffffff" d="M 243.066406 79.859375 C 242.96875 79.453125 242.878906 79.054688 242.789062 78.660156 C 242.234375 76.21875 241.789062 74.019531 241.445312 72.046875 C 246.296875 72.488281 252.777344 73.136719 257.582031 73.960938 C 262.53125 76.683594 269.117188 80.339844 273.960938 83.246094 C 274.242188 84.855469 274.609375 86.652344 275.058594 88.640625 C 275.128906 88.964844 275.207031 89.289062 275.28125 89.621094 C 270.871094 89.039062 264.972656 88.328125 260.523438 88.136719 C 255.3125 85.597656 248.347656 82.238281 243.066406 79.859375 " fill-opacity="1" fill-rule="nonzero"/><path fill="#ffffff" d="M 203.21875 76.050781 C 203.109375 75.582031 203.003906 75.121094 202.898438 74.660156 C 202.257812 71.828125 201.738281 69.269531 201.335938 66.980469 C 206.445312 66.132812 213.269531 65.058594 218.421875 64.59375 C 223.800781 66.398438 230.957031 68.84375 236.25 70.878906 C 236.605469 72.898438 237.0625 75.15625 237.628906 77.65625 C 237.71875 78.0625 237.8125 78.472656 237.910156 78.882812 C 233.105469 79.589844 226.703125 80.589844 221.964844 81.660156 C 216.363281 79.90625 208.882812 77.601562 203.21875 76.050781 " fill-opacity="1" fill-rule="nonzero"/><path fill="#ffffff" d="M 162.066406 80.710938 C 161.945312 80.203125 161.832031 79.699219 161.71875 79.203125 C 161.027344 76.132812 160.460938 73.355469 160.023438 70.875 C 165.179688 68.730469 172.078125 65.917969 177.367188 64.128906 C 182.9375 64.878906 190.363281 65.929688 195.890625 66.972656 C 196.296875 69.292969 196.824219 71.886719 197.472656 74.761719 C 197.578125 75.226562 197.6875 75.699219 197.796875 76.171875 C 192.804688 78.15625 186.167969 80.859375 181.3125 83.15625 C 175.554688 82.335938 167.859375 81.273438 162.066406 80.710938 " fill-opacity="1" fill-rule="nonzero"/><path fill="#ffffff" d="M 121.332031 94.308594 C 121.210938 93.789062 121.09375 93.273438 120.980469 92.765625 C 120.273438 89.640625 119.699219 86.8125 119.253906 84.28125 C 124.230469 80.84375 130.90625 76.300781 136.082031 73.175781 C 141.609375 72.730469 148.996094 72.195312 154.539062 72.097656 C 154.976562 74.597656 155.542969 77.386719 156.242188 80.472656 C 156.355469 80.976562 156.472656 81.480469 156.59375 81.996094 C 151.617188 85.230469 145.011719 89.597656 140.214844 93.09375 C 134.546875 93.351562 126.980469 93.742188 121.332031 94.308594 " fill-opacity="1" fill-rule="nonzero"/><path fill="#ffffff" d="M 85.488281 115.542969 C 85.375 115.046875 85.261719 114.554688 85.152344 114.070312 C 84.472656 111.070312 83.925781 108.359375 83.496094 105.933594 C 87.617188 101.566406 93.152344 95.773438 97.511719 91.644531 C 102.453125 90.050781 109.070312 87.980469 114.113281 86.742188 C 114.554688 89.261719 115.128906 92.085938 115.835938 95.207031 C 115.949219 95.714844 116.066406 96.226562 116.1875 96.742188 C 111.730469 101.019531 105.816406 106.757812 101.578125 111.253906 C 96.726562 112.433594 90.257812 114.046875 85.488281 115.542969 " fill-opacity="1" fill-rule="nonzero"/><path fill="#ffffff" d="M 56.863281 142.503906 C 56.757812 142.058594 56.65625 141.613281 56.558594 141.175781 C 55.945312 138.476562 55.453125 136.035156 55.066406 133.855469 C 58.21875 128.84375 62.464844 122.183594 65.863281 117.339844 C 69.820312 114.816406 75.140625 111.503906 79.289062 109.3125 C 79.710938 111.714844 80.257812 114.394531 80.925781 117.367188 C 81.035156 117.847656 81.144531 118.335938 81.261719 118.824219 C 77.699219 123.773438 72.980469 130.390625 69.632812 135.488281 C 65.742188 137.480469 60.574219 140.191406 56.863281 142.503906 " fill-opacity="1" fill-rule="nonzero"/><path fill="#ffffff" d="M 36.15625 173.710938 C 36.066406 173.339844 35.980469 172.96875 35.902344 172.605469 C 35.390625 170.351562 34.976562 168.316406 34.660156 166.496094 C 36.761719 161.097656 39.613281 153.917969 41.972656 148.625 C 44.84375 145.332031 48.730469 140.976562 51.882812 137.949219 C 52.257812 140.089844 52.742188 142.484375 53.34375 145.132812 C 53.441406 145.5625 53.539062 145.992188 53.640625 146.433594 C 51.042969 151.761719 47.617188 158.890625 45.230469 164.320312 C 42.414062 167.042969 38.691406 170.726562 36.15625 173.710938 " fill-opacity="1" fill-rule="nonzero"/><path fill="#ffffff" d="M 24.078125 207.699219 C 24.011719 207.421875 23.949219 207.144531 23.886719 206.871094 C 23.507812 205.1875 23.199219 203.667969 22.960938 202.308594 C 23.9375 196.777344 25.28125 189.410156 26.519531 183.933594 C 28.226562 180.027344 30.554688 174.839844 32.589844 171.097656 C 32.898438 172.863281 33.300781 174.835938 33.792969 177.019531 C 33.871094 177.375 33.957031 177.734375 34.039062 178.09375 C 32.480469 183.542969 30.433594 190.8125 29.089844 196.316406 C 27.46875 199.675781 25.355469 204.191406 24.078125 207.699219 " fill-opacity="1" fill-rule="nonzero"/><g clip-path="url(#92190b0cc4)"><path fill="#ffffff" d="M 21.335938 242.988281 C 21.296875 242.824219 21.257812 242.65625 21.21875 242.492188 C 20.992188 241.480469 20.808594 240.566406 20.660156 239.75 C 20.421875 234.332031 20.152344 227.105469 20.191406 221.6875 C 20.652344 217.332031 21.308594 211.523438 22.097656 207.214844 C 22.324219 208.507812 22.617188 209.953125 22.980469 211.550781 C 23.039062 211.808594 23.101562 212.070312 23.160156 212.335938 C 22.707031 217.648438 22.140625 224.734375 21.925781 230.058594 C 21.628906 233.929688 21.296875 239.105469 21.335938 242.988281 " fill-opacity="1" fill-rule="nonzero"/></g><path fill="#ffffff" d="M 348.867188 154.027344 C 348.796875 153.789062 348.730469 153.5625 348.675781 153.347656 L 352.058594 159.683594 L 348.867188 154.027344 " fill-opacity="1" fill-rule="nonzero"/><path fill="#ffffff" d="M 328.148438 129.871094 C 327.746094 128.503906 327.382812 127.210938 327.0625 125.992188 C 330.171875 128.878906 334.28125 132.785156 337.121094 135.9375 C 339.933594 139.921875 343.65625 145.25 346.28125 149.363281 C 346.371094 149.714844 346.476562 150.085938 346.59375 150.484375 C 344.273438 147.546875 341.136719 143.65625 338.527344 140.976562 C 335.460938 137.605469 330.457031 133.804688 328.148438 129.871094 " fill-opacity="1" fill-rule="nonzero"/><path fill="#ffffff" d="M 300.175781 111.863281 C 299.476562 109.484375 298.839844 107.222656 298.285156 105.101562 C 302.121094 106.6875 307.226562 108.867188 310.898438 110.808594 C 314.753906 114.371094 319.882812 119.144531 323.621094 122.835938 C 323.972656 124.179688 324.371094 125.609375 324.816406 127.117188 C 321.636719 125.425781 317.351562 123.21875 313.996094 121.90625 C 309.878906 118.855469 303.164062 116.03125 300.175781 111.863281 " fill-opacity="1" fill-rule="nonzero"/><path fill="#ffffff" d="M 266.554688 100.359375 C 265.597656 97.105469 264.730469 94.019531 263.96875 91.125 C 268.332031 91.421875 274.15625 91.882812 278.476562 92.570312 C 283.167969 95.605469 289.410156 99.671875 294.011719 102.839844 C 294.597656 105.070312 295.265625 107.449219 296 109.957031 C 292.132812 109.527344 286.953125 109.019531 283.0625 108.980469 C 278.128906 106.355469 271.542969 102.875 266.554688 100.359375 " fill-opacity="1" fill-rule="nonzero"/><path fill="#ffffff" d="M 228.898438 95.695312 C 227.738281 91.753906 226.691406 88.011719 225.765625 84.496094 C 230.460938 83.535156 236.746094 82.300781 241.503906 81.703125 C 246.804688 84.082031 253.859375 87.277344 259.089844 89.8125 C 259.878906 92.800781 260.765625 95.984375 261.753906 99.339844 C 257.398438 100.164062 251.589844 101.328125 247.3125 102.5 C 241.804688 100.410156 234.453125 97.652344 228.898438 95.695312 " fill-opacity="1" fill-rule="nonzero"/><path fill="#ffffff" d="M 147.90625 108.285156 C 146.539062 103.632812 145.304688 99.21875 144.214844 95.078125 C 149.039062 91.679688 155.5 87.179688 160.5 84.039062 C 166.316406 84.671875 174.066406 85.554688 179.847656 86.433594 C 180.894531 90.410156 182.082031 94.648438 183.394531 99.117188 C 178.648438 102.308594 172.347656 106.609375 167.761719 110.023438 C 161.8125 109.421875 153.875 108.652344 147.90625 108.285156 " fill-opacity="1" fill-rule="nonzero"/><path fill="#ffffff" d="M 108.828125 125.695312 C 107.476562 121.09375 106.253906 116.730469 105.171875 112.632812 C 109.515625 108.214844 115.34375 102.351562 119.902344 98.15625 C 125.5625 97.695312 133.121094 97.136719 138.804688 96.972656 C 139.898438 101.121094 141.132812 105.542969 142.503906 110.203125 C 137.871094 114.4375 131.722656 120.121094 127.277344 124.554688 C 121.738281 124.8125 114.347656 125.191406 108.828125 125.695312 " fill-opacity="1" fill-rule="nonzero"/><path fill="#ffffff" d="M 76.007812 148.382812 C 74.75 144.105469 73.613281 140.042969 72.613281 136.234375 C 76.070312 131.195312 80.726562 124.5 84.398438 119.613281 C 89.1875 118.257812 95.585938 116.503906 100.449219 115.453125 C 101.519531 119.523438 102.738281 123.859375 104.082031 128.433594 C 100.230469 133.304688 95.117188 139.824219 91.445312 144.832031 C 86.796875 145.796875 80.589844 147.128906 76.007812 148.382812 " fill-opacity="1" fill-rule="nonzero"/><path fill="#ffffff" d="M 50.449219 174.953125 C 49.351562 171.230469 48.363281 167.703125 47.492188 164.386719 C 50.007812 159.003906 53.398438 151.839844 56.117188 146.558594 C 59.871094 144.402344 64.914062 141.582031 68.832031 139.738281 C 69.820312 143.492188 70.941406 147.496094 72.179688 151.714844 C 69.199219 156.917969 65.25 163.875 62.4375 169.171875 C 58.789062 170.800781 53.9375 173.015625 50.449219 174.953125 " fill-opacity="1" fill-rule="nonzero"/><path fill="#ffffff" d="M 32.898438 204.097656 C 32.027344 201.136719 31.242188 198.324219 30.546875 195.6875 C 32.035156 190.21875 34.0625 182.941406 35.761719 177.539062 C 38.363281 174.699219 41.886719 170.953125 44.757812 168.390625 C 45.609375 171.621094 46.574219 175.070312 47.640625 178.699219 C 45.597656 183.964844 42.890625 190.996094 41.007812 196.320312 C 38.488281 198.558594 35.148438 201.585938 32.898438 204.097656 " fill-opacity="1" fill-rule="nonzero"/><path fill="#ffffff" d="M 24.113281 234.507812 C 23.511719 232.472656 22.972656 230.542969 22.496094 228.726562 C 22.878906 223.433594 23.433594 216.375 24.042969 211.105469 C 25.394531 207.722656 27.253906 203.222656 28.949219 200.003906 C 29.617188 202.539062 30.375 205.238281 31.214844 208.085938 C 30.167969 213.15625 28.796875 219.921875 27.933594 225.027344 C 26.660156 227.816406 25.023438 231.578125 24.113281 234.507812 " fill-opacity="1" fill-rule="nonzero"/><path fill="#ffffff" d="M 24.839844 264.878906 C 24.550781 263.902344 24.292969 262.976562 24.0625 262.105469 C 23.253906 257.234375 22.222656 250.71875 21.679688 245.808594 C 21.699219 242.011719 21.769531 236.945312 22.136719 233.167969 C 22.582031 234.863281 23.085938 236.667969 23.648438 238.570312 C 23.667969 243.207031 23.726562 249.394531 23.980469 254.027344 C 24.117188 257.292969 24.371094 261.648438 24.839844 264.878906 " fill-opacity="1" fill-rule="nonzero"/><path fill="#ffffff" d="M 26.128906 270.671875 L 25.382812 267.894531 L 25.03125 266.484375 C 25.226562 267.222656 25.445312 268.007812 25.691406 268.835938 L 27.046875 273.871094 C 26.769531 272.910156 26.394531 271.632812 26.128906 270.671875 " fill-opacity="1" fill-rule="nonzero"/><path fill="#ffffff" d="M 340.714844 145.527344 C 340.398438 144.570312 340.101562 143.648438 339.824219 142.761719 C 342.261719 145.484375 345.460938 149.179688 347.605469 152.140625 L 352.058594 159.683594 L 348.320312 154.351562 C 346.085938 151.664062 342.488281 148.542969 340.714844 145.527344 " fill-opacity="1" fill-rule="nonzero"/><path fill="#ffffff" d="M 317.96875 130.464844 C 317.234375 128.269531 316.550781 126.144531 315.917969 124.109375 C 319.144531 125.503906 323.433594 127.433594 326.480469 129.195312 C 329.703125 132.382812 333.980469 136.644531 337.082031 139.949219 C 337.410156 140.996094 337.761719 142.082031 338.136719 143.210938 C 335.644531 141.777344 332.273438 139.914062 329.597656 138.867188 C 326.128906 136.316406 320.539062 133.917969 317.96875 130.464844 " fill-opacity="1" fill-rule="nonzero"/><path fill="#ffffff" d="M 288.5625 121.019531 C 287.46875 117.730469 286.441406 114.550781 285.492188 111.503906 C 289.3125 111.621094 294.417969 111.84375 298.203125 112.359375 C 302.433594 115.238281 308.0625 119.097656 312.21875 122.082031 C 312.898438 124.261719 313.632812 126.535156 314.414062 128.882812 C 311.140625 128.699219 306.757812 128.527344 303.488281 128.734375 C 299.019531 126.398438 291.851562 124.832031 288.5625 121.019531 " fill-opacity="1" fill-rule="nonzero"/><path fill="#ffffff" d="M 254.046875 117.339844 C 252.652344 113.148438 251.34375 109.097656 250.132812 105.210938 C 254.378906 104.109375 260.058594 102.695312 264.378906 101.949219 C 269.394531 104.417969 276.082031 107.726562 281.046875 110.300781 C 282.035156 113.46875 283.105469 116.773438 284.238281 120.191406 C 280.386719 121.234375 275.257812 122.6875 271.503906 124.046875 C 266.277344 122.007812 259.300781 119.304688 254.046875 117.339844 " fill-opacity="1" fill-rule="nonzero"/><path fill="#ffffff" d="M 215.972656 119.585938 C 214.355469 114.714844 212.835938 110.007812 211.429688 105.496094 C 215.933594 103.238281 221.96875 100.261719 226.605469 98.289062 C 232.183594 100.214844 239.617188 102.8125 245.15625 104.863281 C 246.394531 108.84375 247.738281 112.996094 249.167969 117.292969 C 244.921875 119.484375 239.289062 122.453125 235.1875 124.894531 C 229.433594 123.265625 221.753906 121.113281 215.972656 119.585938 " fill-opacity="1" fill-rule="nonzero"/><path fill="#ffffff" d="M 175.890625 127.902344 C 174.136719 122.621094 172.488281 117.523438 170.964844 112.628906 C 175.566406 109.273438 181.730469 104.828125 186.488281 101.699219 C 192.394531 102.945312 200.261719 104.632812 206.125 106.042969 C 207.554688 110.621094 209.09375 115.394531 210.738281 120.335938 C 206.285156 123.578125 200.371094 127.933594 196.058594 131.367188 C 190.015625 130.273438 181.957031 128.847656 175.890625 127.902344 " fill-opacity="1" fill-rule="nonzero"/><path fill="#ffffff" d="M 135.425781 142.40625 C 133.640625 137.027344 131.960938 131.828125 130.40625 126.839844 C 134.914062 122.476562 140.953125 116.683594 145.628906 112.5 C 151.613281 112.90625 159.582031 113.480469 165.546875 114.105469 C 167.078125 119.027344 168.738281 124.160156 170.5 129.46875 C 165.996094 133.644531 160.015625 139.238281 155.644531 143.554688 C 149.582031 143.152344 141.5 142.632812 135.425781 142.40625 " fill-opacity="1" fill-rule="nonzero"/><path fill="#ffffff" d="M 69.019531 184 C 67.476562 179.359375 66.03125 174.871094 64.691406 170.574219 C 67.59375 165.320312 71.5 158.328125 74.566406 153.167969 C 79.132812 152.027344 85.242188 150.5625 89.871094 149.695312 C 91.34375 154.425781 92.9375 159.359375 94.632812 164.460938 C 91.308594 169.53125 86.890625 176.308594 83.691406 181.460938 C 79.277344 182.140625 73.390625 183.074219 69.019531 184 " fill-opacity="1" fill-rule="nonzero"/><path fill="#ffffff" d="M 46.300781 208.347656 C 45.015625 204.472656 43.804688 200.730469 42.6875 197.140625 C 44.671875 191.859375 47.351562 184.824219 49.496094 179.609375 C 52.992188 177.808594 57.683594 175.464844 61.320312 173.96875 C 62.636719 178.191406 64.054688 182.589844 65.570312 187.144531 C 63.074219 192.203125 59.761719 198.957031 57.386719 204.070312 C 54.023438 205.253906 49.546875 206.867188 46.300781 208.347656 " fill-opacity="1" fill-rule="nonzero"/><path fill="#ffffff" d="M 31.65625 233.566406 C 30.699219 230.675781 29.792969 227.878906 28.957031 225.199219 C 29.945312 220.140625 31.292969 213.402344 32.457031 208.378906 C 34.734375 206.011719 37.832031 202.890625 40.375 200.804688 C 41.457031 204.28125 42.628906 207.910156 43.878906 211.667969 C 42.277344 216.460938 40.160156 222.855469 38.683594 227.6875 C 36.492188 229.351562 33.59375 231.617188 31.65625 233.566406 " fill-opacity="1" fill-rule="nonzero"/><path fill="#ffffff" d="M 25.894531 258.554688 C 25.320312 256.8125 24.773438 255.132812 24.273438 253.519531 C 24.171875 248.929688 24.085938 242.804688 24.203125 238.214844 C 25.152344 235.394531 26.480469 231.636719 27.796875 228.96875 C 28.59375 231.515625 29.449219 234.171875 30.367188 236.921875 C 29.726562 241.21875 28.890625 246.949219 28.414062 251.265625 C 27.523438 253.402344 26.402344 256.296875 25.894531 258.554688 " fill-opacity="1" fill-rule="nonzero"/><path fill="#ffffff" d="M 28.820312 279.472656 C 28.476562 278.425781 28.023438 277.027344 27.6875 275.976562 L 27.417969 275.09375 L 25.496094 267.816406 C 25.046875 264.652344 24.480469 260.425781 24.371094 257.234375 C 24.828125 258.695312 25.320312 260.21875 25.84375 261.796875 C 26.234375 265.390625 26.777344 270.1875 27.410156 273.746094 C 27.824219 275.464844 28.265625 277.792969 28.820312 279.472656 " fill-opacity="1" fill-rule="nonzero"/><path fill="#ffffff" d="M 349.824219 156.902344 C 349.710938 156.597656 349.605469 156.300781 349.503906 156.011719 L 352.058594 159.683594 L 349.824219 156.902344 " fill-opacity="1" fill-rule="nonzero"/><path fill="#ffffff" d="M 333.578125 146.207031 C 332.953125 144.472656 332.355469 142.78125 331.78125 141.128906 C 334.292969 142.261719 337.628906 143.847656 339.941406 145.351562 C 342.292969 147.828125 345.417969 151.144531 347.644531 153.734375 C 347.808594 154.214844 347.980469 154.703125 348.164062 155.199219 C 346.472656 154.097656 344.164062 152.660156 342.277344 151.949219 C 339.679688 150.207031 335.53125 148.648438 333.578125 146.207031 " fill-opacity="1" fill-rule="nonzero"/><path fill="#ffffff" d="M 309.644531 140.34375 C 308.554688 137.328125 307.503906 134.371094 306.511719 131.496094 C 309.6875 131.367188 313.9375 131.253906 317.105469 131.527344 C 320.640625 133.90625 325.347656 137.089844 328.828125 139.546875 C 329.457031 141.367188 330.121094 143.238281 330.8125 145.152344 C 328.230469 145.28125 324.78125 145.542969 322.246094 146.050781 C 318.46875 144.332031 313.429688 142.046875 309.644531 140.34375 " fill-opacity="1" fill-rule="nonzero"/><path fill="#ffffff" d="M 279.484375 139.25 C 277.996094 135.128906 276.5625 131.09375 275.207031 127.164062 C 278.90625 125.871094 283.859375 124.183594 287.660156 123.214844 C 292.171875 125.414062 298.1875 128.355469 302.667969 130.613281 C 303.71875 133.640625 304.816406 136.75 305.96875 139.925781 C 302.714844 141.257812 298.394531 143.09375 295.265625 144.695312 C 290.535156 143.058594 284.222656 140.878906 279.484375 139.25 " fill-opacity="1" fill-rule="nonzero"/><path fill="#ffffff" d="M 206.390625 151.089844 C 204.363281 145.488281 202.421875 140.003906 200.578125 134.660156 C 204.878906 131.28125 210.640625 126.800781 215.085938 123.609375 C 220.882812 125.121094 228.605469 127.148438 234.378906 128.742188 C 236.058594 133.601562 237.824219 138.59375 239.667969 143.683594 C 235.59375 147.054688 230.179688 151.578125 226.234375 155.09375 C 220.285156 153.871094 212.351562 152.253906 206.390625 151.089844 " fill-opacity="1" fill-rule="nonzero"/><path fill="#ffffff" d="M 127.113281 180.691406 C 125.007812 174.863281 122.984375 169.15625 121.0625 163.601562 C 125.089844 158.710938 130.488281 152.210938 134.671875 147.449219 C 140.742188 147.738281 148.839844 148.152344 154.902344 148.609375 C 156.847656 154.238281 158.898438 160.019531 161.03125 165.921875 C 156.753906 170.714844 151.066406 177.117188 146.90625 182.003906 C 140.972656 181.578125 133.054688 181.019531 127.113281 180.691406 " fill-opacity="1" fill-rule="nonzero"/><path fill="#ffffff" d="M 93.019531 199.542969 C 91.058594 194.121094 89.179688 188.8125 87.390625 183.640625 C 90.683594 178.535156 95.09375 171.730469 98.511719 166.707031 C 103.828125 166.460938 110.921875 166.171875 116.242188 166.113281 C 118.15625 171.632812 120.164062 177.308594 122.257812 183.101562 C 118.605469 188.0625 113.753906 194.691406 110.199219 199.71875 C 105.042969 199.613281 98.171875 199.496094 93.019531 199.542969 " fill-opacity="1" fill-rule="nonzero"/><path fill="#ffffff" d="M 65.242188 219.449219 C 63.535156 214.734375 61.902344 210.117188 60.347656 205.621094 C 62.832031 200.550781 66.171875 193.804688 68.773438 188.789062 C 73.148438 188.011719 78.988281 187.019531 83.398438 186.472656 C 85.164062 191.566406 87.015625 196.800781 88.949219 202.140625 C 86.015625 207.003906 82.113281 213.492188 79.25 218.394531 C 75.042969 218.640625 69.429688 218.996094 65.242188 219.449219 " fill-opacity="1" fill-rule="nonzero"/><path fill="#ffffff" d="M 32.207031 258.851562 C 31.273438 256.273438 30.378906 253.746094 29.527344 251.289062 C 30.167969 247.023438 31.050781 241.339844 31.832031 237.101562 C 33.835938 235.335938 36.5625 233.03125 38.789062 231.558594 C 39.980469 235 41.234375 238.535156 42.535156 242.140625 C 41.234375 246.089844 39.507812 251.355469 38.285156 255.324219 C 36.40625 256.277344 33.894531 257.589844 32.207031 258.851562 " fill-opacity="1" fill-rule="nonzero"/><path fill="#ffffff" d="M 28.722656 276.5625 C 28.277344 275.324219 27.847656 274.113281 27.4375 272.933594 C 27.011719 269.410156 26.488281 264.703125 26.28125 261.160156 C 26.875 259.042969 27.730469 256.214844 28.707031 254.246094 C 29.5 256.546875 30.335938 258.90625 31.207031 261.316406 C 30.824219 264.492188 30.328125 268.730469 30.089844 271.921875 C 29.539062 273.265625 28.878906 275.121094 28.722656 276.5625 " fill-opacity="1" fill-rule="nonzero"/><path fill="#ffffff" d="M 30.0625 283.058594 C 29.769531 282.226562 29.378906 281.117188 29.097656 280.285156 L 27.894531 275.664062 C 28.238281 276.664062 28.605469 277.695312 28.984375 278.742188 C 29.417969 280.355469 29.882812 282.542969 30.449219 284.113281 L 30.0625 283.058594 " fill-opacity="1" fill-rule="nonzero"/><path fill="#ffffff" d="M 344.640625 156.382812 C 344.210938 155.277344 343.800781 154.1875 343.398438 153.109375 C 345.136719 153.886719 347.441406 155.015625 348.960938 156.164062 L 352.058594 159.683594 L 349.953125 158.78125 C 348.359375 158.066406 345.839844 157.65625 344.640625 156.382812 " fill-opacity="1" fill-rule="nonzero"/><path fill="#ffffff" d="M 326.976562 155.394531 C 325.996094 152.855469 325.046875 150.347656 324.125 147.875 C 326.589844 147.417969 329.898438 146.851562 332.402344 146.785156 C 335.078125 148.382812 338.644531 150.511719 341.300781 152.152344 C 341.769531 153.421875 342.261719 154.710938 342.765625 156.015625 C 340.921875 156.566406 338.46875 157.382812 336.742188 158.234375 C 333.808594 157.402344 329.894531 156.28125 326.976562 155.394531 " fill-opacity="1" fill-rule="nonzero"/><path fill="#ffffff" d="M 302.050781 158.339844 C 300.585938 154.542969 299.160156 150.785156 297.78125 147.082031 C 300.871094 145.507812 305.011719 143.433594 308.230469 142.140625 C 312.0625 143.753906 317.171875 145.902344 321.003906 147.515625 C 321.988281 150.160156 323.007812 152.847656 324.054688 155.5625 C 321.460938 157.28125 318.035156 159.617188 315.582031 161.527344 C 311.519531 160.597656 306.101562 159.335938 302.050781 158.339844 " fill-opacity="1" fill-rule="nonzero"/><path fill="#ffffff" d="M 271.246094 164.925781 C 269.375 160.085938 267.558594 155.292969 265.804688 150.574219 C 269.386719 147.976562 274.183594 144.535156 277.90625 142.136719 C 282.683594 143.6875 289.054688 145.753906 293.828125 147.300781 C 295.261719 151.152344 296.742188 155.0625 298.269531 159.011719 C 295.09375 161.746094 290.878906 165.421875 287.828125 168.296875 C 282.851562 167.304688 276.214844 165.96875 271.246094 164.925781 " fill-opacity="1" fill-rule="nonzero"/><path fill="#ffffff" d="M 235.949219 174.851562 C 233.78125 169.230469 231.667969 163.664062 229.628906 158.183594 C 233.5625 154.679688 238.828125 150.027344 242.890625 146.675781 C 248.390625 148.074219 255.71875 149.9375 261.210938 151.351562 C 263.011719 156.1875 264.875 161.097656 266.789062 166.054688 C 263.167969 169.652344 258.355469 174.472656 254.839844 178.171875 C 249.171875 177.179688 241.613281 175.859375 235.949219 174.851562 " fill-opacity="1" fill-rule="nonzero"/><path fill="#ffffff" d="M 157.5 203.476562 C 155.101562 197.265625 152.769531 191.113281 150.515625 185.054688 C 154.71875 180.203125 160.34375 173.75 164.640625 168.976562 C 170.871094 169.71875 179.175781 170.722656 185.394531 171.566406 C 187.617188 177.542969 189.921875 183.613281 192.289062 189.746094 C 188.160156 194.527344 182.664062 200.914062 178.585938 205.738281 C 172.261719 205.046875 163.828125 204.128906 157.5 203.476562 " fill-opacity="1" fill-rule="nonzero"/><path fill="#ffffff" d="M 88.066406 236.6875 C 85.996094 231.328125 83.984375 226.019531 82.039062 220.796875 C 84.96875 215.933594 88.890625 209.453125 91.886719 204.628906 C 97.007812 204.667969 103.832031 204.746094 108.949219 204.925781 C 111.085938 210.671875 113.300781 216.511719 115.578125 222.402344 C 112.269531 227.113281 107.867188 233.390625 104.59375 238.121094 C 99.636719 237.660156 93.027344 237.054688 88.066406 236.6875 " fill-opacity="1" fill-rule="nonzero"/><path fill="#ffffff" d="M 62.195312 252.320312 C 60.46875 247.847656 58.789062 243.417969 57.167969 239.054688 C 59.339844 234.558594 62.246094 228.570312 64.472656 224.097656 C 68.628906 223.773438 74.171875 223.375 78.339844 223.238281 C 80.246094 228.363281 82.222656 233.570312 84.25 238.828125 C 81.613281 243.097656 78.089844 248.785156 75.457031 253.054688 C 71.480469 252.789062 66.175781 252.445312 62.195312 252.320312 " fill-opacity="1" fill-rule="nonzero"/><path fill="#ffffff" d="M 43.53125 266.414062 C 42.238281 263.074219 40.984375 259.765625 39.773438 256.511719 C 41.097656 252.597656 42.882812 247.382812 44.277344 243.492188 C 47.296875 242.785156 51.339844 241.898438 54.40625 241.4375 C 55.980469 245.664062 57.609375 249.957031 59.285156 254.292969 C 57.382812 257.90625 54.847656 262.730469 52.941406 266.347656 C 50.117188 266.304688 46.351562 266.265625 43.53125 266.414062 " fill-opacity="1" fill-rule="nonzero"/><path fill="#ffffff" d="M 33.039062 278.320312 C 32.261719 276.308594 31.507812 274.320312 30.777344 272.355469 C 31.15625 269.230469 31.695312 265.0625 32.191406 261.949219 C 33.894531 260.875 36.21875 259.5 38.074219 258.722656 C 39.230469 261.816406 40.421875 264.960938 41.644531 268.136719 C 40.5625 270.910156 39.121094 274.617188 38.054688 277.402344 C 36.535156 277.59375 34.496094 277.855469 33.039062 278.320312 " fill-opacity="1" fill-rule="nonzero"/><path fill="#ffffff" d="M 31.546875 287.035156 L 31.074219 285.796875 L 30.671875 284.71875 C 30.171875 282.890625 29.460938 280.464844 29.125 278.601562 C 29.332031 277.28125 29.660156 275.488281 30.265625 274.300781 C 30.925781 276.074219 31.609375 277.878906 32.3125 279.699219 C 32.113281 281.472656 31.851562 283.839844 31.789062 285.625 C 31.640625 286.023438 31.433594 286.621094 31.546875 287.035156 " fill-opacity="1" fill-rule="nonzero"/><path fill="#ffffff" d="M 351.105469 160.21875 C 350.96875 159.894531 350.839844 159.566406 350.710938 159.242188 L 352.058594 159.683594 L 351.105469 160.21875 " fill-opacity="1" fill-rule="nonzero"/><path fill="#ffffff" d="M 340.871094 165.070312 C 340.109375 163.21875 339.367188 161.367188 338.636719 159.523438 C 340.269531 158.707031 342.480469 157.625 344.238281 157.125 C 345.851562 157.714844 347.996094 158.507812 349.621094 159.046875 C 349.835938 159.582031 350.050781 160.117188 350.269531 160.652344 C 349.289062 161.714844 348.015625 163.175781 347.148438 164.335938 C 345.273438 164.644531 342.765625 164.988281 340.871094 165.070312 " fill-opacity="1" fill-rule="nonzero"/><path fill="#ffffff" d="M 296.839844 184.167969 C 295.035156 179.757812 293.257812 175.351562 291.519531 170.964844 C 294.515625 168.085938 298.53125 164.269531 301.652344 161.53125 C 305.726562 162.40625 311.152344 163.566406 315.242188 164.363281 C 316.582031 167.746094 317.949219 171.144531 319.34375 174.539062 C 316.839844 177.65625 313.523438 181.824219 311.113281 185.007812 C 306.828125 184.808594 301.117188 184.507812 296.839844 184.167969 " fill-opacity="1" fill-rule="nonzero"/><path fill="#ffffff" d="M 265.625 197.320312 C 263.429688 191.972656 261.28125 186.628906 259.171875 181.308594 C 262.648438 177.609375 267.292969 172.6875 270.871094 169.089844 C 275.859375 170.035156 282.511719 171.289062 287.511719 172.175781 C 289.304688 176.699219 291.136719 181.246094 293 185.796875 C 289.929688 189.691406 285.851562 194.890625 282.859375 198.839844 C 277.683594 198.421875 270.789062 197.84375 265.625 197.320312 " fill-opacity="1" fill-rule="nonzero"/><path fill="#ffffff" d="M 115.851562 258.625 C 113.472656 252.824219 111.136719 247.023438 108.851562 241.253906 C 112.191406 236.546875 116.652344 230.277344 120.019531 225.589844 C 125.765625 226.199219 133.433594 227.019531 139.175781 227.671875 C 141.617188 233.835938 144.117188 240.035156 146.65625 246.234375 C 143.027344 250.867188 138.191406 257.042969 134.554688 261.667969 C 128.945312 260.753906 121.460938 259.535156 115.851562 258.625 " fill-opacity="1" fill-rule="nonzero"/><path fill="#ffffff" d="M 60.484375 280.421875 C 58.835938 276.40625 57.21875 272.386719 55.636719 268.394531 C 57.636719 264.820312 60.300781 260.054688 62.292969 256.476562 C 66.261719 256.746094 71.554688 257.132812 75.515625 257.523438 C 77.457031 262.417969 79.4375 267.34375 81.457031 272.269531 C 78.976562 275.609375 75.667969 280.058594 73.117188 283.351562 C 69.332031 282.453125 64.285156 281.261719 60.484375 280.421875 " fill-opacity="1" fill-rule="nonzero"/><path fill="#ffffff" d="M 43.070312 286.964844 C 41.941406 284.207031 40.828125 281.445312 39.738281 278.703125 C 40.929688 275.972656 42.515625 272.335938 43.703125 269.605469 C 46.515625 269.636719 50.269531 269.722656 53.074219 269.910156 C 54.597656 273.75 56.152344 277.609375 57.734375 281.472656 C 55.964844 283.90625 53.59375 287.152344 51.726562 289.519531 C 49.136719 288.738281 45.679688 287.695312 43.070312 286.964844 " fill-opacity="1" fill-rule="nonzero"/><path fill="#ffffff" d="M 33.9375 290.058594 C 33.394531 288.730469 32.859375 287.40625 32.339844 286.089844 C 32.589844 284.363281 32.953125 282.066406 33.292969 280.355469 C 34.769531 280.121094 36.753906 279.882812 38.246094 279.863281 C 39.261719 282.425781 40.304688 285.003906 41.359375 287.585938 C 40.394531 288.964844 39.101562 290.8125 38.03125 292.117188 C 36.800781 291.503906 34.867188 291.066406 33.9375 290.058594 " fill-opacity="1" fill-rule="nonzero"/><path fill="#ffffff" d="M 33.03125 290.742188 C 32.371094 289.125 32.371094 289.125 32.046875 288.308594 L 31.78125 287.636719 C 31.832031 287.40625 31.894531 287.105469 31.945312 286.878906 L 32.050781 286.820312 C 32.492188 287.9375 32.945312 289.0625 33.402344 290.183594 C 33.316406 290.398438 33.300781 290.78125 33.097656 290.898438 L 33.03125 290.742188 " fill-opacity="1" fill-rule="nonzero"/><path fill="#ffffff" d="M 349.40625 168.019531 C 348.925781 166.914062 348.449219 165.796875 347.980469 164.679688 C 348.78125 163.480469 349.84375 161.878906 350.753906 160.761719 L 352.058594 159.683594 L 351.890625 163.433594 C 351.285156 164.878906 350.390625 166.804688 349.40625 168.019531 " fill-opacity="1" fill-rule="nonzero"/><path fill="#ffffff" d="M 337.917969 182.109375 C 336.816406 179.570312 335.726562 177.007812 334.644531 174.433594 C 336.285156 172.148438 338.484375 169.101562 340.230469 166.894531 C 342.183594 166.648438 344.800781 166.308594 346.703125 165.796875 C 347.257812 167.117188 347.820312 168.433594 348.382812 169.738281 C 347.433594 172.390625 346.164062 175.925781 345.214844 178.582031 C 343.082031 179.75 340.1875 181.246094 337.917969 182.109375 " fill-opacity="1" fill-rule="nonzero"/><path fill="#ffffff" d="M 318.433594 198.34375 C 316.785156 194.539062 315.148438 190.703125 313.535156 186.851562 C 315.886719 183.628906 319.042969 179.34375 321.488281 176.191406 C 324.722656 176.183594 329.039062 176.152344 332.261719 175.945312 C 333.417969 178.699219 334.585938 181.441406 335.765625 184.15625 C 334 187.699219 331.660156 192.425781 329.925781 195.980469 C 326.5 196.78125 321.910156 197.792969 318.433594 198.34375 " fill-opacity="1" fill-rule="nonzero"/><path fill="#ffffff" d="M 145.851562 282.925781 C 143.265625 276.964844 140.699219 270.945312 138.167969 264.902344 C 141.832031 260.285156 146.714844 254.128906 150.371094 249.503906 C 156.5625 250.339844 164.824219 251.445312 171.027344 252.234375 C 173.664062 258.523438 176.335938 264.789062 179.027344 270.996094 C 175.167969 275.640625 170.019531 281.828125 166.121094 286.4375 C 160.035156 285.410156 151.921875 284.03125 145.851562 282.925781 " fill-opacity="1" fill-rule="nonzero"/><path fill="#ffffff" d="M 111.1875 293.15625 C 108.863281 287.789062 106.554688 282.375 104.273438 276.9375 C 107.445312 272.902344 111.664062 267.523438 114.792969 263.457031 C 120.375 264.417969 127.820312 265.703125 133.402344 266.664062 C 135.910156 272.644531 138.449219 278.601562 141.007812 284.503906 C 137.546875 288.46875 132.914062 293.746094 129.375 297.644531 C 123.917969 296.3125 116.636719 294.527344 111.1875 293.15625 " fill-opacity="1" fill-rule="nonzero"/><path fill="#ffffff" d="M 81.496094 299.449219 C 79.554688 294.96875 77.628906 290.449219 75.726562 285.90625 C 78.3125 282.644531 81.753906 278.28125 84.277344 274.964844 C 89.042969 275.957031 95.394531 277.289062 100.152344 278.308594 C 102.390625 283.644531 104.652344 288.957031 106.9375 294.222656 C 103.957031 297.347656 99.96875 301.503906 96.882812 304.523438 C 92.265625 303.007812 86.105469 300.984375 81.496094 299.449219 " fill-opacity="1" fill-rule="nonzero"/><path fill="#ffffff" d="M 57.945312 301.621094 C 56.496094 298.273438 55.058594 294.898438 53.632812 291.507812 C 55.550781 289.171875 58.082031 286.039062 59.90625 283.632812 C 63.65625 284.582031 68.65625 285.859375 72.398438 286.855469 C 74.242188 291.25 76.109375 295.632812 77.992188 299.976562 C 75.597656 302.125 72.382812 304.976562 69.851562 306.960938 C 66.273438 305.367188 60.691406 304.414062 57.945312 301.621094 " fill-opacity="1" fill-rule="nonzero"/><path fill="#ffffff" d="M 41.714844 299.5 C 40.839844 297.488281 39.972656 295.457031 39.121094 293.414062 C 40.253906 292.152344 41.730469 290.4375 42.757812 289.085938 C 45.3125 289.941406 48.710938 291.09375 51.25 291.980469 C 52.601562 295.203125 53.96875 298.410156 55.347656 301.589844 C 53.636719 302.652344 51.335938 304.058594 49.484375 304.859375 C 47.136719 303.273438 43.488281 301.707031 41.714844 299.5 " fill-opacity="1" fill-rule="nonzero"/><path fill="#ffffff" d="M 34.253906 293.625 L 34.078125 293.21875 C 33.851562 292.683594 33.542969 291.964844 33.316406 291.425781 C 33.53125 291.332031 33.792969 291.128906 33.929688 290.933594 C 35.085938 291.683594 36.636719 292.664062 37.820312 293.375 C 38.597656 295.222656 39.378906 297.0625 40.171875 298.886719 C 39.191406 298.796875 37.835938 298.597656 36.984375 298.101562 C 36.128906 296.777344 34.90625 295.054688 34.253906 293.625 " fill-opacity="1" fill-rule="nonzero"/><path fill="#ffffff" d="M 352.542969 163.539062 C 352.402344 163.234375 352.261719 162.921875 352.121094 162.605469 L 352.058594 159.683594 L 352.542969 163.539062 " fill-opacity="1" fill-rule="nonzero"/><path fill="#ffffff" d="M 349.066406 183.953125 C 348.265625 182.21875 347.464844 180.449219 346.667969 178.660156 C 347.492188 175.945312 348.59375 172.332031 349.398438 169.613281 C 350.296875 168.179688 351.445312 166.195312 351.941406 164.578125 C 352.171875 165.09375 352.402344 165.605469 352.636719 166.105469 C 352.648438 169.222656 352.636719 173.378906 352.515625 176.492188 C 351.621094 178.789062 350.355469 181.851562 349.066406 183.953125 " fill-opacity="1" fill-rule="nonzero"/><g clip-path="url(#54d7f5d5fa)"><path fill="#ffffff" d="M 55.285156 315.101562 C 54.09375 312.519531 52.898438 309.886719 51.710938 307.214844 C 53.628906 306.375 56.160156 305.183594 57.945312 304.089844 C 61.5 305.816406 66.246094 308.113281 69.820312 309.796875 C 71.484375 313.535156 73.152344 317.21875 74.820312 320.832031 C 72.378906 321.628906 69.089844 322.652344 66.558594 323.09375 C 63.152344 320.730469 57.902344 318.316406 55.285156 315.101562 " fill-opacity="1" fill-rule="nonzero"/></g><path fill="#ffffff" d="M 39.796875 303.558594 C 39.226562 302.320312 38.65625 301.054688 38.082031 299.773438 C 39.121094 300.203125 40.578125 300.707031 41.703125 300.71875 C 43.996094 302.484375 47.074219 304.820312 49.433594 306.503906 C 50.542969 308.996094 51.660156 311.460938 52.773438 313.871094 C 50.9375 313.4375 48.476562 312.777344 46.789062 311.941406 C 44.636719 309.472656 41.488281 306.363281 39.796875 303.558594 " fill-opacity="1" fill-rule="nonzero"/><path fill="#ffffff" d="M 35.261719 295.894531 C 35.042969 295.40625 34.753906 294.761719 34.539062 294.273438 C 35.242188 295.523438 36.113281 297.234375 36.917969 298.421875 C 37.40625 299.507812 37.890625 300.582031 38.375 301.632812 L 36.214844 297.964844 C 35.925781 297.34375 35.539062 296.515625 35.261719 295.894531 " fill-opacity="1" fill-rule="nonzero"/><path fill="#ffffff" d="M 354.394531 178.828125 C 353.945312 177.929688 353.484375 176.972656 353.003906 175.964844 L 352.992188 175.9375 C 352.96875 172.753906 352.929688 168.507812 352.746094 165.324219 L 352.058594 159.683594 L 353.863281 167.628906 C 354.15625 170.976562 354.5 175.464844 354.394531 178.828125 " fill-opacity="1" fill-rule="nonzero"/><path fill="#ffffff" d="M 353.890625 166.25 C 353.777344 166.046875 353.660156 165.824219 353.539062 165.585938 L 352.058594 159.683594 L 353.890625 166.25 " fill-opacity="1" fill-rule="nonzero"/><path fill="#ffffff" d="M 354.832031 167.746094 C 354.765625 167.667969 354.691406 167.566406 354.609375 167.449219 L 352.058594 159.683594 L 354.832031 167.746094 " fill-opacity="1" fill-rule="nonzero"/></svg>