<?xml version="1.0" encoding="UTF-8"?>
<svg id="Layer_1" data-name="Layer 1" xmlns="http://www.w3.org/2000/svg" xmlns:xlink="http://www.w3.org/1999/xlink" viewBox="0 0 360.08 168.49">
  <defs>
    <style>
      .cls-1 {
        fill: none;
      }

      .cls-2 {
        clip-path: url(#clippath);
      }

      .cls-3 {
        clip-path: url(#clippath-1);
      }

      .cls-4 {
        clip-path: url(#clippath-4);
      }

      .cls-5 {
        clip-path: url(#clippath-3);
      }

      .cls-6 {
        clip-path: url(#clippath-2);
      }

      .cls-7 {
        clip-path: url(#clippath-5);
      }
    </style>
    <clipPath id="clippath">
      <rect class="cls-1" x="109.2" y="0" width="24" height="4.6"/>
    </clipPath>
    <clipPath id="clippath-1">
      <rect class="cls-1" x="83.87" y="0" width="24" height="3.27"/>
    </clipPath>
    <clipPath id="clippath-2">
      <rect class="cls-1" y="77.94" width="3.87" height="24"/>
    </clipPath>
    <clipPath id="clippath-3">
      <rect class="cls-1" y="93.94" width="2.54" height="22.67"/>
    </clipPath>
    <clipPath id="clippath-4">
      <rect class="cls-1" y="109.94" width="3.87" height="20"/>
    </clipPath>
    <clipPath id="clippath-5">
      <rect class="cls-1" x="18.54" y="152.6" width="16" height="12.4"/>
    </clipPath>
  </defs>
  <path d="M59.97,10.89c.18-.58,.44-.94,.79-1.1l4.65-2.03c4.36-1.57,10.23-3.53,14.7-4.78l2.19-.51c-.37,.14-.65,.51-.83,1.11-3.35,1.16-7.8,2.76-11.06,4.14-3.15,.87-7.35,2.07-10.43,3.17"/>
  <path d="M38.21,24.44c.14-.43,.31-.74,.55-.93l.08-.06c8.78-6.56,8.95-6.68,13.89-9.52l4.87-2.62c-.33,.17-.58,.53-.76,1.09-3.02,1.93-7.03,4.53-9.92,6.64-2.65,1.55-6.18,3.65-8.7,5.4"/>
  <path d="M200.05,60.7l.09,.06,2.03,4.9-2.13-4.96"/>
  <path d="M193.44,49.17c.04-.11,.09-.17,.15-.2,1.73,2.92,4.01,6.83,5.56,9.85l3.03,6.84-3.15-6.68c-1.63-2.97-3.82-6.92-5.59-9.81"/>
  <path d="M177.21,29.8c.08-.24,.19-.4,.35-.46,2.35,2.34,5.46,5.48,7.67,7.95,1.99,2.61,4.63,6.11,6.48,8.82-.08,.03-.14,.11-.18,.23-1.99-2.55-4.68-5.93-6.83-8.35-2.21-2.49-5.17-5.8-7.49-8.19"/>
  <path d="M157.22,15.07c.11-.37,.29-.6,.52-.69,2.83,1.7,6.6,4,9.33,5.86,2.45,2.01,5.71,4.7,8.06,6.83-.16,.06-.29,.23-.37,.49-2.53-1.9-5.93-4.41-8.58-6.14-2.66-1.95-6.21-4.54-8.96-6.37"/>
  <path d="M134.47,5.4c.15-.47,.36-.77,.66-.88,3.18,1.01,7.42,2.39,10.53,3.59,2.79,1.34,6.51,3.16,9.21,4.66-.24,.09-.42,.33-.54,.72-2.94-1.2-6.86-2.77-9.88-3.77-2.97-1.35-6.95-3.13-9.99-4.32"/>
  <g class="cls-2">
    <path d="M109.99,1.19c.17-.55,.43-.89,.77-1.02,3.3,.27,7.7,.63,10.97,1.09l.45,.07c2.95,.62,6.89,1.47,9.8,2.28-.3,.11-.53,.41-.68,.9-3.21-.45-7.49-1.03-10.72-1.27-3.16-.68-7.39-1.56-10.58-2.05"/>
  </g>
  <g class="cls-3">
    <path d="M84.8,2.9c.19-.6,.46-.96,.83-1.11l4.34-.74c2.53-.27,5.89-.72,8.42-.89l3.11-.15,5.94,.04c-.34,.14-.6,.48-.78,1.04-3.34,.33-7.81,.81-11.12,1.37-3.22,.06-7.53,.17-10.75,.45"/>
  </g>
  <path d="M20.94,42.29c.08-.26,.18-.47,.3-.64,1.68-2.05,3.85-4.84,5.62-6.81,2.72-2.81,6.41-6.52,9.3-9.15-.21,.19-.39,.48-.51,.9-2.45,2.49-5.7,5.85-7.99,8.49-2.07,2.11-4.81,4.96-6.72,7.21"/>
  <path d="M199.95,61.03c0-.07-.01-.14-.01-.18l2.23,4.82-2.22-4.64"/>
  <path d="M186.04,40.74c-.05-.42-.06-.77-.05-1.06,2.06,2.48,4.77,5.81,6.67,8.42,1.77,2.88,4.09,6.73,5.72,9.69,0,.08,0,.19,.02,.31-1.64-2.63-3.85-6.11-5.67-8.62-1.96-2.65-5.41-5.69-6.68-8.74"/>
  <path d="M167.83,24.76c-.08-.73-.11-1.35-.09-1.84,2.57,1.79,5.98,4.21,8.43,6.18,2.32,2.4,5.41,5.61,7.62,8.11-.01,.31,0,.7,.06,1.16-2.2-1.93-5.17-4.48-7.52-6.24-2.52-2.24-6.89-4.4-8.49-7.36"/>
  <path d="M146.35,13.44c-.11-1.01-.15-1.84-.13-2.51,2.95,1.07,6.88,2.53,9.75,3.8,2.75,1.85,6.41,4.34,9.07,6.31-.02,.52,.01,1.16,.1,1.94-2.65-1.2-6.2-2.78-8.94-3.77-2.93-1.77-6.85-4.11-9.85-5.77"/>
  <path d="M122.62,7.18c-.14-1.22-.19-2.23-.15-3.05,3.19,.31,7.45,.76,10.61,1.29,3.05,1.24,7.11,2.91,10.09,4.3-.03,.69,.02,1.55,.13,2.59-2.96-.44-6.94-1-9.93-1.22-3.21-1.22-7.5-2.83-10.76-3.91"/>
  <path d="M97.66,6.35c-.16-1.36-.21-2.5-.17-3.42,3.3-.48,7.71-1.09,11.04-1.35,3.21,.55,7.5,1.32,10.68,2.05-.04,.83,.02,1.86,.16,3.11-3.16,.34-7.37,.83-10.49,1.4-3.35-.6-7.82-1.38-11.2-1.8"/>
  <path d="M72.49,11.35c-.16-1.44-.22-2.64-.18-3.59,3.27-1.3,7.66-3.02,11.01-4.09,3.24-.21,7.57-.45,10.82-.44-.04,.92,.02,2.07,.18,3.45-3.22,1.15-7.5,2.71-10.63,4.07-3.36,.1-7.85,.28-11.19,.6"/>
  <path d="M48.75,22.2c-.16-1.42-.22-2.6-.18-3.56,2.95-2.06,6.91-4.78,9.99-6.65,3.11-1.02,7.27-2.34,10.45-3.13-.04,.96,.02,2.16,.18,3.6-3.13,1.95-7.27,4.59-10.26,6.73-3.08,.82-7.17,1.96-10.18,3"/>
  <path d="M29.14,37.6c-.15-1.32-.21-2.42-.17-3.3,2.36-2.6,5.55-6.06,8.07-8.51,2.56-1.67,5.99-3.85,8.67-5.32-.04,.94,.02,2.12,.18,3.54-2.6,2.55-6.04,5.97-8.49,8.66-2.52,1.41-5.86,3.32-8.26,4.93"/>
  <path d="M14.21,56.55c-.13-1.15-.18-2.11-.15-2.88,1.73-3,4.07-6.98,5.97-9.88,1.95-2.19,4.57-5.08,6.67-7.11-.04,.87,.02,1.95,.17,3.26-2.01,2.97-4.67,6.96-6.52,10.03-1.9,1.92-4.41,4.51-6.14,6.58"/>
  <path d="M4.4,78.05c-.1-.92-.14-1.68-.11-2.29,1.05-3.24,2.46-7.57,3.68-10.75,1.29-2.59,3.03-6.05,4.5-8.54-.04,.74,.01,1.68,.14,2.8-1.37,3.24-3.17,7.57-4.38,10.86-1.22,2.34-2.81,5.48-3.83,7.91"/>
  <g class="cls-6">
    <path d="M.12,101.15c-.07-.63-.09-1.16-.08-1.57l.07-1.1,.44-4.99,.91-6.32c.55-2.51,1.26-5.85,1.94-8.32-.03,.59,.02,1.32,.11,2.2-.67,3.35-1.55,7.82-2.06,11.19-.46,2.67-1.05,6.23-1.32,8.92"/>
  </g>
  <path d="M193.74,51.83c-.02-.06-.03-.11-.04-.17-.07-.34-.14-.65-.19-.92,1.72,2.55,3.99,5.96,5.54,8.61l3.13,6.3-2.95-5.44c-1.6-2.54-4.26-5.64-5.48-8.39"/>
  <path d="M177.91,35.91c-.03-.13-.06-.26-.09-.39-.17-.78-.32-1.48-.43-2.11,2.27,1.8,5.27,4.24,7.39,6.22,2.09,2.54,4.86,5.94,6.85,8.57,.05,.32,.13,.68,.22,1.08,.02,.06,.03,.13,.04,.2-1.84-1.88-4.32-4.37-6.32-6.08-2.27-2.28-6.05-4.71-7.66-7.5"/>
  <path d="M158.27,24.21c-.05-.19-.09-.39-.13-.57-.27-1.17-.48-2.22-.65-3.16,2.68,1.05,6.24,2.47,8.82,3.73,2.62,2.14,6.1,5,8.64,7.23,.12,.68,.27,1.43,.46,2.26l.09,.41c-2.32-1.13-5.44-2.59-7.86-3.49-2.79-1.95-7.43-3.6-9.38-6.4"/>
  <path d="M135.8,17.05c-.06-.24-.11-.49-.17-.72-.34-1.49-.61-2.83-.82-4.03,2.95,.27,6.9,.67,9.83,1.17,3.02,1.66,7.02,3.89,9.97,5.66,.17,.98,.39,2.07,.67,3.28,.04,.2,.09,.4,.14,.6-2.69-.35-6.28-.79-8.98-.9-3.18-1.55-7.42-3.59-10.64-5.05"/>
  <path d="M111.54,14.73c-.07-.29-.14-.57-.2-.85-.39-1.72-.7-3.28-.95-4.68,3.11-.52,7.27-1.17,10.4-1.45,3.28,1.1,7.64,2.59,10.86,3.83,.21,1.23,.49,2.6,.84,4.13,.05,.24,.11,.49,.17,.75-2.93,.43-6.83,1.04-9.71,1.69-3.41-1.07-7.96-2.47-11.41-3.41"/>
  <path d="M86.48,17.57c-.07-.31-.14-.61-.21-.92-.42-1.87-.76-3.56-1.03-5.07,3.14-1.3,7.34-3.02,10.56-4.11,3.39,.46,7.92,1.1,11.28,1.73,.24,1.41,.57,2.99,.96,4.74,.06,.29,.13,.57,.2,.86-3.04,1.2-7.08,2.85-10.04,4.25-3.51-.5-8.2-1.15-11.72-1.49"/>
  <path d="M61.68,25.85c-.07-.32-.15-.63-.22-.94-.43-1.91-.78-3.63-1.05-5.17,3.03-2.09,7.09-4.86,10.24-6.77,3.36-.27,7.86-.6,11.24-.66,.27,1.52,.61,3.22,1.04,5.1,.07,.3,.14,.61,.21,.92-3.03,1.97-7.05,4.63-9.97,6.76-3.45,.16-8.06,.4-11.49,.74"/>
  <path d="M39.85,38.78c-.07-.3-.14-.6-.21-.9-.41-1.83-.74-3.48-1.01-4.96,2.51-2.66,5.88-6.19,8.54-8.7,3.01-.97,7.04-2.23,10.11-2.99,.27,1.54,.61,3.26,1.05,5.16,.07,.31,.14,.62,.21,.94-2.71,2.6-6.31,6.1-8.9,8.83-2.95,.72-6.9,1.7-9.8,2.61"/>
  <path d="M22.42,55.2c-.06-.27-.13-.54-.19-.81-.37-1.65-.67-3.13-.91-4.46,1.92-3.05,4.51-7.11,6.57-10.06,2.41-1.54,5.65-3.55,8.18-4.89,.26,1.46,.59,3.09,.99,4.91,.07,.29,.14,.59,.21,.89-2.17,3.02-5.05,7.05-7.08,10.15-2.37,1.21-5.52,2.86-7.78,4.27"/>
  <path d="M9.81,74.2c-.05-.23-.11-.45-.16-.68-.31-1.37-.56-2.61-.76-3.72,1.28-3.29,3.02-7.66,4.45-10.88,1.75-2.01,4.11-4.66,6.04-6.5,.23,1.3,.52,2.76,.89,4.37,.06,.26,.12,.53,.18,.8-1.58,3.24-3.67,7.58-5.12,10.89-1.72,1.66-3.98,3.91-5.53,5.72"/>
  <path d="M2.45,94.9c-.04-.17-.08-.34-.12-.51-.23-1.03-.42-1.95-.56-2.78,.59-3.37,1.42-7.85,2.17-11.19,1.04-2.38,2.46-5.54,3.7-7.82,.19,1.08,.43,2.28,.73,3.61,.05,.21,.1,.43,.15,.65-.95,3.32-2.19,7.74-3.01,11.1-.99,2.04-2.28,4.8-3.05,6.93"/>
  <g class="cls-5">
    <path d="M.78,116.39c-.02-.1-.05-.2-.07-.3-.14-.62-.26-1.18-.34-1.67-.15-3.3-.31-7.7-.29-11,.28-2.65,.68-6.19,1.16-8.81,.14,.79,.32,1.67,.54,2.64,.04,.16,.07,.32,.11,.48-.28,3.23-.63,7.55-.76,10.79-.18,2.35-.38,5.51-.36,7.88"/>
  </g>
  <path d="M200.23,62.21c-.04-.15-.08-.28-.11-.41l2.06,3.86-1.95-3.45"/>
  <path d="M187.61,47.51c-.24-.83-.46-1.62-.66-2.36,1.9,1.76,4.4,4.14,6.13,6.06,1.71,2.43,3.98,5.67,5.58,8.18,.06,.21,.12,.44,.19,.68-1.41-1.79-3.32-4.16-4.91-5.79-1.87-2.06-4.92-4.37-6.32-6.77"/>
  <path d="M170.58,36.54c-.43-1.45-.81-2.83-1.16-4.12,2.34,.96,5.45,2.29,7.68,3.47,2.35,2.17,5.47,5.08,7.75,7.33,.21,.81,.46,1.69,.73,2.6-1.94-1.03-4.55-2.38-6.59-3.17-2.51-1.86-6.6-3.58-8.42-6.11"/>
  <path d="M150.11,29.53c-.58-1.98-1.11-3.86-1.57-5.62,2.66,.18,6.2,.46,8.83,.88,2.86,1.85,6.66,4.32,9.46,6.25,.36,1.36,.77,2.81,1.21,4.33-2.36-.26-5.51-.57-7.88-.59-3.01-1.59-7.02-3.71-10.05-5.25"/>
  <path d="M127.18,26.69c-.71-2.4-1.34-4.68-1.91-6.82,2.86-.59,6.68-1.34,9.58-1.7,3.22,1.45,7.52,3.4,10.71,4.94,.48,1.82,1.02,3.76,1.63,5.8-2.66,.51-6.19,1.21-8.8,1.93-3.35-1.27-7.83-2.95-11.21-4.15"/>
  <path d="M77.86,34.36c-.83-2.83-1.59-5.52-2.25-8.04,2.94-2.07,6.88-4.81,9.92-6.72,3.54,.39,8.26,.93,11.78,1.46,.64,2.42,1.36,5.01,2.16,7.72-2.89,1.94-6.73,4.56-9.52,6.64-3.63-.36-8.46-.83-12.09-1.06"/>
  <path d="M54.06,44.96c-.83-2.8-1.57-5.46-2.23-7.95,2.65-2.69,6.19-6.26,8.97-8.82,3.45-.28,8.05-.62,11.51-.72,.67,2.53,1.42,5.22,2.26,8.06-2.82,2.58-6.57,6.04-9.27,8.74-3.38,.16-7.88,.39-11.23,.7"/>
  <path d="M34.07,58.78c-.77-2.6-1.46-5.08-2.07-7.4,2.11-3.07,4.94-7.15,7.18-10.12,2.92-.83,6.81-1.9,9.78-2.54,.65,2.48,1.39,5.12,2.21,7.91-2.35,2.96-5.46,6.93-7.7,9.98-2.83,.59-6.61,1.4-9.4,2.16"/>
  <path d="M18.51,74.96c-.67-2.27-1.27-4.42-1.8-6.43,1.53-3.28,3.6-7.64,5.26-10.86,2.28-1.31,5.35-3.03,7.74-4.15,.6,2.29,1.29,4.72,2.04,7.29-1.82,3.17-4.22,7.41-5.93,10.63-2.22,.99-5.18,2.34-7.3,3.52"/>
  <path d="M7.82,92.7c-.53-1.8-1.01-3.51-1.43-5.12,.91-3.33,2.14-7.76,3.18-11.05,1.58-1.73,3.73-4.01,5.47-5.57,.52,1.97,1.11,4.07,1.76,6.28-1.24,3.21-2.9,7.49-4.04,10.73-1.54,1.36-3.57,3.21-4.94,4.73"/>
  <path d="M2.47,111.22c-.36-1.24-.7-2.42-.98-3.52,.23-3.22,.57-7.52,.94-10.73,.82-2.06,1.95-4.8,2.98-6.76,.41,1.54,.87,3.19,1.38,4.92-.64,3.09-1.47,7.21-1.99,10.31-.78,1.7-1.78,3.99-2.33,5.78"/>
  <g class="cls-4">
    <path d="M2.92,129.72c-.18-.59-.33-1.16-.47-1.69-.49-2.97-1.12-6.94-1.45-9.93,.02-2.31,.06-5.4,.28-7.7,.27,1.03,.58,2.13,.92,3.29,.02,2.82,.05,6.59,.2,9.41,.08,1.99,.24,4.64,.53,6.61"/>
  </g>
  <path d="M3.7,133.24l-.45-1.69-.21-.86c.12,.45,.26,.93,.4,1.43l.83,3.06c-.17-.58-.4-1.36-.56-1.95"/>
  <path d="M195.27,57.04c-.2-.58-.38-1.15-.55-1.69,1.48,1.66,3.44,3.91,4.74,5.71l2.71,4.59-2.28-3.25c-1.36-1.64-3.55-3.54-4.63-5.37"/>
  <path d="M181.42,47.86c-.45-1.33-.86-2.63-1.25-3.87,1.96,.85,4.58,2.03,6.43,3.1,1.96,1.94,4.57,4.54,6.46,6.55,.2,.64,.41,1.3,.64,1.99-1.52-.88-3.57-2.01-5.2-2.65-2.11-1.56-5.52-3.02-7.08-5.12"/>
  <path d="M163.51,42.11c-.67-2.01-1.29-3.94-1.87-5.79,2.32,.07,5.43,.2,7.74,.52,2.58,1.76,6.01,4.1,8.54,5.92,.41,1.33,.86,2.71,1.33,4.14-1.99-.11-4.66-.21-6.65-.09-2.72-1.42-7.08-2.38-9.09-4.7"/>
  <path d="M142.49,39.88c-.85-2.55-1.65-5.02-2.38-7.39,2.58-.67,6.04-1.54,8.68-1.99,3.05,1.51,7.13,3.52,10.15,5.09,.6,1.93,1.26,3.94,1.94,6.02-2.34,.64-5.47,1.52-7.75,2.35-3.19-1.24-7.44-2.89-10.64-4.08"/>
  <path d="M119.31,41.24c-.98-2.96-1.91-5.83-2.77-8.58,2.74-1.38,6.42-3.19,9.24-4.39,3.4,1.18,7.92,2.76,11.3,4.01,.76,2.43,1.57,4.95,2.44,7.57-2.58,1.33-6.02,3.15-8.52,4.63-3.5-.99-8.18-2.3-11.7-3.23"/>
  <path d="M94.9,46.31c-1.07-3.22-2.07-6.32-2.99-9.3,2.8-2.04,6.55-4.75,9.45-6.66,3.59,.76,8.39,1.79,11.95,2.65,.87,2.79,1.81,5.7,2.81,8.7-2.71,1.97-6.31,4.63-8.94,6.72-3.68-.67-8.59-1.54-12.29-2.11"/>
  <path d="M70.26,55.14c-1.09-3.28-2.11-6.44-3.06-9.48,2.75-2.66,6.42-6.19,9.27-8.73,3.65,.24,8.5,.59,12.13,.98,.93,2.99,1.94,6.12,3.02,9.35-2.74,2.54-6.39,5.95-9.04,8.58-3.69-.24-8.62-.56-12.31-.7"/>
  <path d="M29.82,80.47c-.94-2.83-1.82-5.56-2.64-8.18,1.77-3.2,4.15-7.46,6.02-10.6,2.78-.69,6.5-1.59,9.32-2.11,.9,2.88,1.87,5.89,2.9,8.99-2.03,3.09-4.71,7.21-6.66,10.35-2.69,.41-6.28,.98-8.94,1.55"/>
  <path d="M15.98,95.29c-.78-2.36-1.52-4.64-2.2-6.82,1.21-3.22,2.84-7.5,4.15-10.68,2.13-1.09,4.98-2.52,7.2-3.43,.8,2.57,1.67,5.25,2.59,8.02-1.52,3.08-3.54,7.19-4.98,10.31-2.05,.72-4.78,1.7-6.75,2.6"/>
  <path d="M7.07,110.65c-.58-1.76-1.14-3.46-1.65-5.1,.6-3.08,1.42-7.18,2.13-10.24,1.39-1.44,3.28-3.34,4.82-4.61,.66,2.12,1.38,4.33,2.14,6.61-.98,2.92-2.27,6.81-3.17,9.76-1.33,1.02-3.1,2.4-4.28,3.58"/>
  <path d="M3.56,125.87c-.35-1.06-.68-2.09-.99-3.07-.06-2.8-.11-6.53-.04-9.32,.58-1.72,1.39-4.01,2.19-5.63,.48,1.55,1.01,3.17,1.56,4.84-.39,2.62-.9,6.11-1.19,8.73-.55,1.3-1.22,3.07-1.54,4.44"/>
  <path d="M5.34,138.6c-.21-.64-.48-1.49-.69-2.13l-.17-.54-1.17-4.43c-.28-1.92-.62-4.5-.69-6.44,.28,.89,.58,1.82,.9,2.78,.24,2.19,.57,5.1,.95,7.28,.26,1.05,.53,2.46,.86,3.48"/>
  <path d="M200.81,63.96c-.07-.18-.13-.36-.19-.54l1.56,2.24-1.36-1.7"/>
  <path d="M190.92,57.45c-.38-1.06-.74-2.09-1.09-3.09,1.53,.69,3.56,1.66,4.97,2.57,1.43,1.51,3.33,3.53,4.69,5.1,.1,.29,.2,.59,.31,.89-1.03-.67-2.43-1.54-3.58-1.98-1.58-1.06-4.11-2.01-5.3-3.49"/>
  <path d="M176.35,53.88c-.67-1.83-1.3-3.64-1.91-5.39,1.94-.08,4.53-.15,6.45,.02,2.15,1.45,5.02,3.39,7.14,4.88,.38,1.11,.79,2.25,1.21,3.41-1.57,.08-3.68,.24-5.22,.55-2.3-1.05-5.37-2.44-7.67-3.48"/>
  <path d="M157.98,53.22c-.91-2.51-1.78-4.97-2.61-7.36,2.26-.79,5.27-1.81,7.58-2.4,2.75,1.34,6.41,3.13,9.14,4.51,.64,1.84,1.31,3.73,2.01,5.67-1.98,.81-4.61,1.93-6.52,2.9-2.89-.99-6.73-2.32-9.61-3.31"/>
  <path d="M113.47,60.43c-1.23-3.41-2.41-6.75-3.54-10.01,2.62-2.06,6.13-4.79,8.83-6.73,3.53,.92,8.23,2.16,11.75,3.13,1.02,2.96,2.1,6,3.22,9.1-2.48,2.05-5.78,4.81-8.18,6.95-3.62-.74-8.45-1.73-12.08-2.44"/>
  <path d="M65.19,78.45c-1.28-3.55-2.51-7.03-3.68-10.41,2.45-2.98,5.74-6.94,8.29-9.84,3.7,.18,8.63,.43,12.32,.71,1.19,3.43,2.44,6.95,3.73,10.54-2.6,2.92-6.07,6.82-8.6,9.79-3.61-.26-8.44-.6-12.06-.8"/>
  <path d="M44.43,89.93c-1.19-3.3-2.34-6.54-3.43-9.68,2.01-3.11,4.69-7.26,6.77-10.31,3.24-.15,7.56-.33,10.8-.36,1.16,3.36,2.39,6.82,3.66,10.34-2.22,3.02-5.18,7.06-7.34,10.13-3.14-.07-7.32-.14-10.46-.11"/>
  <path d="M27.52,102.05c-1.04-2.87-2.03-5.68-2.98-8.42,1.52-3.09,3.55-7.2,5.13-10.25,2.67-.47,6.22-1.08,8.91-1.41,1.07,3.1,2.2,6.29,3.38,9.54-1.79,2.96-4.16,6.91-5.9,9.9-2.56,.15-5.98,.36-8.54,.64"/>
  <path d="M7.4,126.05c-.57-1.57-1.11-3.11-1.63-4.6,.39-2.6,.93-6.06,1.4-8.64,1.22-1.07,2.88-2.48,4.24-3.38,.72,2.09,1.48,4.25,2.28,6.45-.79,2.4-1.84,5.61-2.59,8.03-1.15,.58-2.68,1.38-3.7,2.15"/>
  <path d="M5.28,136.83c-.27-.76-.54-1.49-.78-2.21-.26-2.15-.58-5.01-.71-7.17,.36-1.29,.89-3.01,1.48-4.21,.48,1.4,.99,2.84,1.52,4.3-.23,1.94-.53,4.52-.68,6.46-.34,.82-.74,1.95-.83,2.83"/>
  <path d="M6.1,140.79c-.18-.51-.42-1.18-.59-1.69l-.73-2.81c.21,.61,.43,1.23,.66,1.88,.27,.98,.55,2.31,.9,3.27l-.23-.64"/>
  <path d="M197.66,63.65c-.27-.67-.52-1.34-.76-1.99,1.06,.47,2.46,1.16,3.39,1.86l1.89,2.15-1.28-.55c-.97-.44-2.51-.68-3.23-1.46"/>
  <path d="M186.9,63.05c-.59-1.55-1.18-3.07-1.73-4.58,1.5-.28,3.52-.63,5.04-.67,1.63,.97,3.8,2.27,5.42,3.27,.29,.78,.58,1.56,.89,2.35-1.13,.33-2.61,.83-3.67,1.35-1.79-.51-4.17-1.19-5.95-1.73"/>
  <path d="M171.72,64.84c-.89-2.31-1.76-4.6-2.6-6.85,1.88-.96,4.4-2.22,6.36-3.01,2.33,.98,5.45,2.29,7.78,3.27,.6,1.61,1.22,3.24,1.86,4.9-1.58,1.04-3.67,2.47-5.16,3.63-2.47-.57-5.78-1.33-8.24-1.94"/>
  <path d="M152.96,68.85c-1.14-2.95-2.24-5.87-3.31-8.74,2.18-1.58,5.1-3.68,7.37-5.14,2.91,.94,6.79,2.2,9.7,3.15,.87,2.34,1.77,4.72,2.7,7.13-1.94,1.67-4.5,3.91-6.36,5.66-3.03-.6-7.07-1.42-10.1-2.05"/>
  <path d="M131.47,74.9c-1.32-3.42-2.61-6.81-3.85-10.15,2.4-2.14,5.6-4.96,8.08-7.01,3.35,.85,7.81,1.98,11.16,2.84,1.1,2.95,2.23,5.94,3.4,8.96-2.2,2.19-5.14,5.13-7.28,7.38-3.45-.6-8.05-1.41-11.5-2.02"/>
  <path d="M83.7,92.33c-1.46-3.78-2.88-7.53-4.25-11.22,2.56-2.95,5.98-6.89,8.6-9.79,3.8,.45,8.85,1.06,12.64,1.58,1.35,3.64,2.76,7.33,4.2,11.07-2.52,2.92-5.86,6.8-8.34,9.74-3.85-.42-8.99-.98-12.84-1.38"/>
  <path d="M41.42,112.55c-1.26-3.27-2.48-6.49-3.67-9.68,1.79-2.96,4.18-6.91,6-9.85,3.11,.03,7.27,.07,10.39,.18,1.3,3.5,2.65,7.06,4.04,10.65-2.02,2.86-4.7,6.69-6.69,9.57-3.02-.28-7.04-.65-10.06-.87"/>
  <path d="M25.66,122.07c-1.05-2.72-2.07-5.42-3.06-8.07,1.32-2.74,3.09-6.39,4.45-9.11,2.53-.2,5.91-.44,8.44-.53,1.16,3.13,2.36,6.29,3.6,9.49-1.61,2.6-3.75,6.06-5.35,8.67-2.42-.17-5.65-.38-8.08-.45"/>
  <path d="M14.3,130.65c-.79-2.03-1.55-4.05-2.29-6.03,.81-2.38,1.89-5.56,2.74-7.93,1.84-.43,4.3-.97,6.17-1.25,.96,2.57,1.95,5.19,2.97,7.83-1.16,2.2-2.7,5.14-3.86,7.34-1.72-.03-4.01-.05-5.73,.04"/>
  <path d="M7.91,137.9c-.47-1.22-.93-2.43-1.38-3.63,.23-1.9,.56-4.44,.86-6.33,1.03-.66,2.45-1.49,3.58-1.97,.7,1.89,1.43,3.8,2.18,5.73-.66,1.69-1.54,3.94-2.19,5.64-.93,.12-2.17,.28-3.06,.56"/>
  <path d="M7,143.21l-.29-.75-.24-.66c-.31-1.11-.74-2.59-.94-3.72,.13-.8,.32-1.9,.69-2.62,.4,1.08,.82,2.18,1.25,3.29-.13,1.08-.28,2.53-.32,3.61-.09,.24-.21,.61-.15,.86"/>
  <path d="M201.59,65.98c-.08-.2-.16-.4-.24-.59l.82,.27-.58,.32"/>
  <path d="M195.36,68.94c-.46-1.13-.92-2.26-1.36-3.38,.99-.5,2.34-1.16,3.42-1.46,.98,.36,2.29,.84,3.28,1.17,.13,.33,.26,.65,.4,.98-.6,.65-1.38,1.54-1.9,2.24-1.14,.19-2.67,.4-3.82,.45"/>
  <path d="M168.55,80.57c-1.1-2.68-2.18-5.37-3.24-8.04,1.82-1.75,4.27-4.07,6.17-5.74,2.47,.53,5.78,1.24,8.27,1.72,.82,2.06,1.65,4.13,2.5,6.2-1.53,1.9-3.55,4.43-5.02,6.38-2.6-.13-6.08-.31-8.69-.52"/>
  <path d="M149.54,88.58c-1.33-3.26-2.65-6.51-3.93-9.75,2.12-2.25,4.95-5.25,7.13-7.44,3.04,.58,7.08,1.34,10.13,1.88,1.09,2.76,2.21,5.53,3.34,8.3-1.87,2.37-4.35,5.54-6.18,7.94-3.15-.26-7.35-.61-10.49-.93"/>
  <path d="M58.34,125.91c-1.45-3.53-2.88-7.07-4.27-10.58,2.04-2.87,4.75-6.69,6.8-9.54,3.5,.38,8.17,.87,11.67,1.27,1.48,3.75,3.01,7.53,4.55,11.3-2.21,2.82-5.16,6.58-7.37,9.4-3.42-.55-7.97-1.3-11.39-1.85"/>
  <path d="M24.62,139.18c-1-2.44-1.98-4.89-2.95-7.32,1.21-2.18,2.84-5.08,4.05-7.26,2.42,.16,5.64,.4,8.05,.64,1.18,2.98,2.39,5.98,3.61,8.98-1.51,2.04-3.53,4.74-5.07,6.74-2.31-.54-5.39-1.27-7.7-1.78"/>
  <path d="M14.02,143.17c-.69-1.68-1.36-3.36-2.03-5.03,.72-1.66,1.69-3.88,2.41-5.54,1.71,.02,4,.07,5.71,.18,.93,2.34,1.88,4.69,2.84,7.04-1.08,1.48-2.53,3.46-3.66,4.9-1.58-.48-3.69-1.11-5.28-1.56"/>
  <path d="M8.45,145.05c-.33-.81-.66-1.61-.97-2.42,.16-1.05,.38-2.45,.58-3.49,.9-.14,2.11-.29,3.02-.3,.62,1.56,1.26,3.13,1.9,4.7-.59,.84-1.38,1.96-2.03,2.76-.75-.37-1.93-.64-2.49-1.25"/>
  <path d="M7.91,145.47q-.41-.98-.6-1.48l-.16-.41c.03-.14,.07-.32,.09-.46l.07-.04c.27,.68,.54,1.36,.82,2.05-.05,.14-.06,.36-.19,.44l-.04-.09"/>
  <path d="M200.56,70.73c-.29-.67-.58-1.35-.86-2.03,.48-.73,1.14-1.71,1.69-2.39l.8-.66-.1,2.28c-.37,.88-.91,2.05-1.52,2.79"/>
  <path d="M193.56,79.32c-.67-1.55-1.33-3.11-1.99-4.68,1-1.39,2.34-3.24,3.4-4.59,1.19-.15,2.78-.36,3.94-.67,.34,.81,.68,1.61,1.02,2.4-.58,1.61-1.35,3.77-1.93,5.39-1.3,.71-3.06,1.63-4.44,2.15"/>
  <path d="M181.7,89.2c-1-2.31-2-4.65-2.98-6.99,1.44-1.96,3.35-4.57,4.84-6.49,1.97,0,4.6-.03,6.56-.15,.7,1.68,1.42,3.34,2.14,5-1.08,2.16-2.5,5.04-3.56,7.2-2.09,.48-4.88,1.1-7,1.43"/>
  <path d="M76.6,140.71c-1.57-3.63-3.14-7.3-4.68-10.97,2.23-2.81,5.2-6.56,7.43-9.38,3.77,.51,8.8,1.18,12.58,1.66,1.6,3.83,3.23,7.65,4.87,11.43-2.35,2.83-5.48,6.6-7.86,9.41-3.7-.63-8.65-1.47-12.34-2.14"/>
  <path d="M55.5,146.94c-1.42-3.27-2.82-6.57-4.21-9.88,1.93-2.46,4.5-5.73,6.41-8.21,3.4,.58,7.93,1.36,11.33,1.95,1.53,3.65,3.07,7.27,4.63,10.86-2.11,2.42-4.93,5.63-7.08,8.01-3.32-.81-7.76-1.9-11.07-2.73"/>
  <path d="M37.42,150.77c-1.18-2.73-2.35-5.48-3.52-8.24,1.58-1.99,3.67-4.65,5.21-6.67,2.9,.6,6.77,1.42,9.67,2.04,1.36,3.25,2.74,6.48,4.13,9.69-1.81,1.9-4.24,4.43-6.12,6.27-2.81-.92-6.56-2.16-9.37-3.09"/>
  <path d="M23.08,152.09c-.89-2.04-1.76-4.09-2.63-6.16,1.17-1.42,2.71-3.33,3.82-4.79,2.28,.58,5.33,1.35,7.6,1.96,1.13,2.68,2.26,5.35,3.41,7.99-1.46,1.31-3.42,3.05-4.95,4.26-2.18-.97-5.58-1.55-7.25-3.25"/>
  <path d="M13.19,150.8c-.54-1.23-1.06-2.46-1.58-3.71,.69-.77,1.59-1.81,2.22-2.64,1.55,.52,3.63,1.22,5.17,1.76,.83,1.96,1.66,3.92,2.5,5.85-1.04,.65-2.44,1.51-3.57,1.99-1.43-.96-3.65-1.92-4.73-3.26"/>
  <path d="M8.65,147.22l-.11-.24c-.14-.33-.33-.77-.46-1.09,.13-.06,.29-.18,.37-.3,.71,.46,1.65,1.06,2.37,1.49,.47,1.12,.95,2.24,1.43,3.35-.59-.05-1.42-.18-1.94-.48-.52-.81-1.27-1.85-1.66-2.72"/>
  <path d="M202.47,68.01c-.08-.18-.17-.38-.26-.57l-.04-1.78,.29,2.34"/>
  <path d="M200.35,80.44c-.49-1.06-.97-2.13-1.46-3.22,.51-1.65,1.18-3.85,1.67-5.51,.55-.88,1.24-2.08,1.55-3.07,.14,.31,.28,.63,.42,.93,.01,1.9,0,4.43-.07,6.32-.54,1.4-1.31,3.26-2.1,4.54"/>
  <g class="cls-7">
    <path d="M21.45,160.3c-.72-1.57-1.45-3.18-2.17-4.8,1.17-.51,2.71-1.24,3.79-1.91,2.17,1.05,5.06,2.45,7.23,3.48,1.01,2.28,2.03,4.52,3.05,6.72-1.49,.48-3.49,1.11-5.04,1.38-2.07-1.44-5.27-2.91-6.86-4.86"/>
  </g>
  <path d="M12.03,153.27c-.35-.76-.7-1.52-1.05-2.31,.63,.27,1.52,.57,2.2,.58,1.4,1.08,3.27,2.5,4.71,3.53,.68,1.52,1.35,3.02,2.04,4.48-1.12-.27-2.61-.67-3.65-1.18-1.31-1.5-3.23-3.4-4.26-5.1"/>
  <path d="M9.26,148.6c-.13-.3-.31-.69-.44-.98,.43,.76,.96,1.8,1.45,2.53,.3,.66,.59,1.31,.89,1.95l-1.31-2.23c-.18-.38-.41-.88-.58-1.26"/>
  <path d="M203.6,77.32c-.28-.55-.56-1.13-.85-1.74v-.02c-.02-1.94-.05-4.53-.16-6.46l-.42-3.43,1.1,4.83c.18,2.04,.39,4.78,.32,6.82"/>
  <path d="M203.29,69.66c-.07-.13-.14-.26-.21-.4l-.9-3.59,1.11,3.99"/>
  <path d="M203.86,70.57s-.08-.11-.14-.18l-1.55-4.72,1.69,4.91"/>
  <path d="M108.43,118.78v-6.54c0-6.67,1.71-11.27,5.15-13.81,3.43-2.54,8.25-3.81,14.46-3.81,4.5,0,12.76,.79,24.77,2.38v5.94l-24.77-1c-.79-.05-1.49-.08-2.08-.08-3.36,0-5.91,.71-7.63,2.13-1.71,1.42-2.56,4.18-2.56,8.27v6.54c0,4.08,.8,6.72,2.42,7.92,1.63,1.18,4.19,1.77,7.69,1.77h14.06c10.29,0,15.44,5.68,15.44,17.04v6.73c0,3.38-.56,6.19-1.69,8.44-1.11,2.24-2.7,3.91-4.75,5-2.04,1.08-4.12,1.82-6.23,2.21-2.11,.4-4.56,.6-7.33,.6-2.31,0-6.39-.3-12.23-.9-5.85-.59-10.02-1.13-12.52-1.58v-5.94c7.26,.72,15.51,1.08,24.75,1.08,8.46,0,12.69-2.97,12.69-8.92v-6.73c0-3.09-.6-5.48-1.79-7.17-1.2-1.69-3.31-2.54-6.33-2.54h-13.88c-3.77,0-6.89-.46-9.35-1.38-2.47-.93-4.27-2.28-5.4-4.06-1.13-1.79-1.89-3.56-2.29-5.31-.39-1.75-.58-3.84-.58-6.27Z"/>
  <path d="M161.8,122.35v-5.56l9.81-1.77,1.77-14.67h5.56v14.67h15.33v7.33h-15.33v26.54c0,4.03,.46,6.82,1.38,8.38,.93,1.54,2.34,2.54,4.25,3,5.42,1.39,8.36,2.08,8.83,2.08v5.25h-8.73c-8.71,0-13.06-6.23-13.06-18.71v-26.54h-9.81Z"/>
  <path d="M203.2,167.7v-52.58h5.15l2.19,6.63c.33-.19,1.17-.69,2.52-1.48,1.36-.79,2.26-1.3,2.69-1.52,.43-.23,1.23-.65,2.42-1.25,1.19-.59,2.13-1.01,2.81-1.23,.69-.23,1.58-.52,2.67-.85,1.09-.33,2.17-.56,3.23-.69,1.07-.14,2.16-.21,3.27-.21,3.83,0,6.28,.27,7.33,.79v7.23c-1.58-.39-4.03-.58-7.33-.58-2.5,0-4.89,.27-7.17,.79-2.28,.53-4.1,1.09-5.46,1.69-1.35,.58-3.68,1.67-6.98,3.25v40.02h-7.33Z"/>
  <path d="M244.4,106.6v-5.35c0-1.65,.79-2.48,2.38-2.48h4.94c1.53,0,2.29,.83,2.29,2.48v5.35c0,1.52-.77,2.27-2.29,2.27h-4.94c-1.58,0-2.38-.76-2.38-2.27Zm.98,61.1v-52.58h7.33v52.58h-7.33Z"/>
  <path d="M260.93,115.12h8.02l16.44,41.79,16.65-41.79h8.02l-21.1,52.58h-7.31l-20.71-52.58Z"/>
  <path d="M316.99,141.16c0-5.8,.4-10.47,1.19-14,.79-3.54,2.22-6.22,4.29-8.04,2.08-1.82,4.4-3.01,6.94-3.56,2.54-.55,6.06-.83,10.56-.83,3.63,0,6.46,.17,8.5,.5,2.05,.32,4.07,1.08,6.04,2.27,1.98,1.18,3.41,3.06,4.27,5.65,.86,2.57,1.29,5.97,1.29,10.19,0,8.06-4.53,12.08-13.58,12.08h-22.19c0,6.14,.69,10.25,2.08,12.33,1.39,2.08,4.03,3.13,7.94,3.13h4.15c9.25,0,16.11-.33,20.6-1v5.56c-6.53,1.85-14.78,2.77-24.75,2.77-6.68,0-11.24-1.92-13.69-5.75-2.43-3.83-3.65-10.93-3.65-21.29Zm7.31-2.98h22.19c4.17,0,6.25-1.61,6.25-4.85,0-5.08-.74-8.23-2.23-9.46-1.49-1.22-4.97-1.83-10.46-1.83-2.31,0-4.01,.04-5.1,.1-1.08,.07-2.37,.26-3.85,.56-1.49,.29-2.54,.77-3.17,1.44-.63,.66-1.29,1.58-1.98,2.77-.7,1.18-1.15,2.7-1.35,4.54-.2,1.85-.29,4.09-.29,6.73Z"/>
</svg>